<?xml version="1.0" encoding="utf-8"?>
<!-- Generator: Adobe Illustrator 24.1.2, SVG Export Plug-In . SVG Version: 6.00 Build 0)  -->
<svg version="1.1" id="Layer_1" xmlns="http://www.w3.org/2000/svg" xmlns:xlink="http://www.w3.org/1999/xlink" x="0px" y="0px"
	 viewBox="0 0 1200 1200" style="enable-background:new 0 0 1200 1200;" xml:space="preserve">
<style type="text/css">
	.st0{fill:#3D3D3D;}
</style>
<g id="Layer_4">
</g>
<g id="Layer_3">
</g>
<g id="Layer_5">
	<g>
		
			<ellipse transform="matrix(0.9488 -0.3159 0.3159 0.9488 -84.0519 155.7479)" class="st0" cx="438.4" cy="337.1" rx="102.7" ry="163.1"/>
		
			<ellipse transform="matrix(0.3917 -0.9201 0.9201 0.3917 144.2551 892.529)" class="st0" cx="747.1" cy="337.2" rx="162.9" ry="102.8"/>
		
			<ellipse transform="matrix(0.665 -0.7469 0.7469 0.665 -347.8431 393.8298)" class="st0" cx="265.1" cy="584.6" rx="89.3" ry="131.5"/>
		
			<ellipse transform="matrix(0.6879 -0.7258 0.7258 0.6879 -103.8457 847.3364)" class="st0" cx="933.3" cy="544.4" rx="133.3" ry="90.9"/>
		<path class="st0" d="M1045.3,868.2c-11.7-81.1-72.5-149.6-143.5-161.7l8.8,2.1C851.8,704.2,795.3,670,759,617
			c-17.5-25.6-31-55.7-53.7-75.2c-18.6-16-41.9-23.3-64.9-27.2c-37.1-6.1-75.8-3.9-110.8,11.4c-35,15.3-66,44.5-82.2,83.2
			c-8.9,21.4-13.2,45-22.3,66.3c-25.6,59.8-84,91-120.7,142.7c-27.1,38.2-41.7,87.8-40.3,136.9c0.4,13,2,26.4,7.8,37.6
			c5.9,11.3,15.7,19.4,25.6,26.1c48.3,32.5,108.4,41,162.1,22.8c67.4-22.8,126.9-85.4,196.9-78c25.2,2.6,48.8,14.4,72.9,23.3
			c87.5,32.3,185.4,26.3,269.4-16.5c11.8-6,23.5-12.9,32.2-23.9C1047.2,926,1049.2,895.4,1045.3,868.2z"/>
	</g>
</g>
</svg>
