<?xml version="1.0" encoding="utf-8"?>
<!-- Generator: Adobe Illustrator 24.1.2, SVG Export Plug-In . SVG Version: 6.00 Build 0)  -->
<svg version="1.1" id="Capa_1" xmlns="http://www.w3.org/2000/svg" xmlns:xlink="http://www.w3.org/1999/xlink" x="0px" y="0px"
	 viewBox="0 0 1024 1024" style="enable-background:new 0 0 1024 1024;" xml:space="preserve">
<style type="text/css">
	.st0{fill:#E2CC85;}
	.st1{fill:#F1D789;}
	.st2{fill:#F4ECB4;}
	.st3{fill:#F3E19D;}
	.st4{fill:#F2E8B0;}
	.st5{fill:#F5EEC0;}
	.st6{fill:#E6DB9D;}
	.st7{fill:#E5CB7A;}
	.st8{fill:#D8C173;}
	.st9{fill:#E0CD81;}
	.st10{fill:#DFC57C;}
	.st11{fill:#E5CC7C;}
	.st12{fill:#D2C281;}
	.st13{fill:#E2C270;}
	.st14{fill:#CCB360;}
	.st15{fill:#D2B257;}
	.st16{fill:#D2B159;}
	.st17{fill:#C2A44D;}
	.st18{fill:#CAA13E;}
	.st19{fill:#B59544;}
	.st20{fill:#C89D3A;}
	.st21{fill:#CEB052;}
	.st22{fill:#CCA847;}
	.st23{fill:#C39D3C;}
	.st24{fill:#D2BA6B;}
	.st25{fill:#C0993A;}
	.st26{fill:#A88F33;}
	.st27{fill:#E3C571;}
	.st28{fill:#D8B65B;}
	.st29{fill:#D3AE4D;}
	.st30{fill:#F4EFC8;}
	.st31{fill:#EBCC73;}
	.st32{fill:#E5C66B;}
	.st33{fill:#E6BD62;}
	.st34{fill:#B6933F;}
	.st35{fill:#C49937;}
	.st36{fill:#DFC068;}
	.st37{fill:#C99E3D;}
	.st38{fill:#B58634;}
	.st39{fill:#E6C367;}
	.st40{fill:#DCBA5A;}
	.st41{fill:#E9CE77;}
	.st42{fill:#CDAE50;}
	.st43{fill:#D2A83E;}
	.st44{fill:#C29637;}
	.st45{fill:#AC8132;}
	.st46{fill:#A67A2E;}
	.st47{fill:#8C6228;}
	.st48{fill:#CBA94C;}
	.st49{fill:#BE9C44;}
	.st50{fill:#A17C34;}
	.st51{fill:#B18E3E;}
	.st52{fill:#543E26;}
	.st53{fill:#B6903C;}
	.st54{fill:#685026;}
	.st55{fill:#D4B968;}
	.st56{fill:#CCA849;}
	.st57{fill:#585136;}
	.st58{fill:#252211;}
	.st59{fill:#C3B378;}
	.st60{fill:#E6D89C;}
	.st61{fill:#6F674D;}
	.st62{fill:#AC924C;}
	.st63{fill:#9F8E57;}
	.st64{fill:#EAC970;}
	.st65{fill:#D7BC6B;}
	.st66{fill:#453A25;}
	.st67{fill:#84754B;}
	.st68{fill:#F7F7E7;}
	.st69{fill:#F8F6DE;}
	.st70{fill:#D4C38B;}
	.st71{fill:#E2D59D;}
	.st72{fill:#CBAC5A;}
	.st73{fill:#D6BC6F;}
	.st74{fill:#DFC677;}
	.st75{fill:#C4A859;}
	.st76{fill:#927D49;}
	.st77{fill:#6E6342;}
	.st78{fill:#39331F;}
	.st79{fill:#292311;}
	.st80{fill:#574F35;}
	.st81{fill:#82764F;}
	.st82{fill:#CFB66C;}
	.st83{fill:#DEC270;}
	.st84{fill:#CBAF59;}
	.st85{fill:#ECD592;}
</style>
<g>
	<g>
		<path class="st0" d="M391.54,676.63l-15.7-29.71l9.13-37.16l65.12-25.15l-27.71-56.87l13.7-57.43l25.71-51.42l79.45-12.49
			l58.39-55.66l126.07,9.53l24.75,134.8l-47.65,169.72l-27.15,87.86l-110.05,4.16l-51.1-35.4l-59.83-24.99L391.54,676.63z"/>
	</g>
	<g>
		<path class="st1" d="M584.56,675.67c0,0-15.22,6.97-41.17,5.37c-7.53-10.09-60.15-14.82-60.15-14.82s-6.57-2-18.18,2.8
			c-11.69,4.73-22.75,4.16-33.08,6.73c-10.33,2.56-20.58-10.89-28.51-13.7c-7.93-2.96-18.42-10.09-18.42-10.09l-22.19-2.16
			l-44.53-18.82l-70.72-70.48l-19.22,30.11l-5.93,37.24l21.38,44.13l57.59,52.46l112.29,28.51l66.56-19.62l83.38-35.24
			L584.56,675.67L584.56,675.67z"/>
	</g>
	<g>
		<path class="st2" d="M185.62,426.58l14.26-43.17l16.98-27.87l54.7-4.57l-16.42,47.9l-45.73,81.37l18.98,72.64l-33.64,16.82
			l-10.33-15.86l-8.33-36.36l-0.56-40.85L185.62,426.58z"/>
	</g>
	<g>
		<path class="st3" d="M246.97,672.7l-10.49-14.66c0,0-2.8-6.97-1.2-13.05c1.6-6.17,1.36-6.57,0.56-8.89
			c-0.8-2.32-7.53-10.33-7.13-17.22c0.4-6.97-0.56-9.29,4.57-14.82c5.37-5.37,3.76-14.66,3.76-14.66l6.97,4.32l1.6-2.4
			c0,0,2.56,2,2.56,5.13c0.56-4.33-1.76-24.35,3.52-28.91c5.37-4.57,14.66,21.38,14.66,21.38l-5.77-37.64l-14.82-38.6l-26.35-35.24
			l-1.6-38.84v-3.36c0,0-12.09,18.58-15.46,33.24c-2.4,10.09,3.36,22.35,2.16,36.84c-0.96,14.42-2.16,13.3,1.36,18.98
			c3.52,5.69,12.09,17.46,8.73,25.95c-2.96,7.29-13.06,2.16-13.06,2.16s-2,5.93-4.73,8.09c-0.96-3.52-2-5.77-3.92-7.93
			c-0.16,1.36-0.56,3.2-0.56,3.2s-1.76-5.53-3.52-12.49c-2.4-9.29-4.97-21.54-7.29-28.11c-0.96,3.76-3.36,15.22-3.36,15.22
			l1.36,17.62l6.57,24.19l6.33,15.86l6.17,19.38l5.37,13.06l4.32,9.93l3.76,22.35l18.18,19.22l9.69,4.32L246.97,672.7L246.97,672.7z
			"/>
	</g>
	<g>
		<path class="st4" d="M195.15,391.34c0,0-13.06,22.19-16.82,44.53c-3.76,22.35-7.13,45.97-4.73,76.41
			c2.4,30.68,6.97,49.5,10.65,62.95c6.33,22.35,22.75,53.42,22.75,53.42l0.56-1.2c0,0-4.32-7.93-6.57-16.42
			c-2.16-8.49-2.96-18.58-4.97-23.15c-1.76-4.57-4.73-8.49-6.17-14.1c-1.36-5.37-1.6-13.86-5.77-20.18
			c-1.76-2.56-3.92-9.29-4.57-16.02c-0.8-10.09,0.4-21.38-0.56-30.68c-1.76-15.46-2.96-25.95-1.36-34.04
			c1.6-8.09,9.93-31.08,15.06-49.34c3.36-11.69,1.36-21.54,7.53-31.72c6.17-10.09,9.93-18.98,11.29-25.15
			C213.09,361.06,195.15,391.34,195.15,391.34L195.15,391.34z"/>
	</g>
	<g>
		<path class="st5" d="M257.07,382.45c0,0-6.73,2-9.93,5.53c-3.2,3.36-4.57,6.17-8.89,11.85c-4.32,5.77-4.57,10.33-8.09,17.46
			c-3.52,6.97-11.29,17.46-12.25,21.22c-0.96,3.76-2.56,21.38-4.57,29.71c-1.76,8.33,2,18.58,2,18.58l4.57-0.96
			c0,0,0,5.93,4.57,9.93c4.57,3.92,5.37-13.3,5.37-13.3l17.06-57.59l25.71-17.46l2.8-14.1L257.07,382.45z"/>
	</g>
	<g>
		<path class="st6" d="M269.56,408.56c0,0-12.09,0.8-18.02,5.13c-2.4,1.76-3.36,3.2-5.93,5.37c-4.73,3.92-9.53,7.53-11.85,12.65
			c-2.56,5.13-5.37,12.89-7.29,27.55c-0.8,6.17-0.8,11.85-1.36,16.82c-0.8,6.73-2,12.09-1.36,15.86c0.8,7.69,8.73,11.69,9.53,20.42
			l16.42-8.33l15.46-60.95l32.84-20.58l-18.58-20.82L269.56,408.56L269.56,408.56z"/>
	</g>
	<g>
		<path class="st7" d="M272.12,952.63l-73.28,1.76l-38.84-2.96c0,0,2.4-28.51,2.96-35.24c1.36-4.16,5.93-16.02,7.29-18.18
			c0.96-3.2,2.16-11.29-0.56-21.22c1.76-2.8,7.29-4.33,13.46-59.59c2.4-20.58,2.8-36.2,4.57-45.97c2.56-13.86,4.33-18.98,3.92-24.19
			c-0.56-8.33-1.2-14.42-0.4-20.82c1.2-8.49,9.53-18.58,9.29-25.55c-0.16-5.53-2.96-9.13-5.37-12.49c-2.4-3.36-4.32-6.17-4.32-6.17
			s16.42-11.29,16.26-56.79c0.56,0.16,0.96,0.4,0.96,0.4l8.09,22.99l5.53,6.73l21.22,39.57l27.31,26.51l40.37,27.15l25.31,27.55
			l2.56,73.44l-33.08,42.93L272.12,952.63L272.12,952.63z"/>
	</g>
	<g>
		<path class="st8" d="M283.98,889.27c0,0,0.56-9.13,8.09-15.06c1.2,2,2,3.92,1.76,5.37c1.36-2.4,10.89-17.78,32.44-21.79
			c21.54-3.92,26.75-19.62,26.75-19.62l45.73-41.57l52.3-48.14l63.59-22.35l29.71-7.29c0,0,0.56,2.16-0.56,6.97
			c5.53-0.4,17.78-3.2,30.52-7.69c5.13-2,9.93-2.8,12.49-0.16c3.76,3.52,4.33,11.85,4.57,16.82c6.17-1.36,13.3-7.29,18.98-6.73
			c9.13,0.96,17.22,11.69,26.51,11.69c12.25,0,17.78-7.53,26.35-13.46c5.13-3.52,12.49-7.93,16.66-10.89
			c9.93-7.29,115.01-39.41,115.01-39.41l36.84,2.4l5.93,39.57l-3.2,103.96l-168.67,88.1l-265.91,40.77l-108.29-27.71L283.98,889.27
			L283.98,889.27z"/>
	</g>
	<g>
		<path class="st1" d="M171.53,952.87c0,0,9.69-21.95,14.26-53.66c3.76-25.95,0.4-31.88,1.36-40.21
			c1.36-12.49,15.46-36.84,16.66-41.57c0.96,9.69,3.76,46.29,13.86,54.46c-2.16,3.2-5.77,14.26,7.13,22.75
			c-2.16,4.57-6.57,10.09-3.76,18.42c2.8,8.33,6.17,20.18,4.57,33.24c-4.57,0.96-9.53,2.96-13.46,6.73
			C208.21,956.55,171.53,952.87,171.53,952.87L171.53,952.87z"/>
	</g>
	<g>
		<path class="st9" d="M337.64,937.57l59.03-16.42l2.56,0.8c0,0,1.36,0.8,1.36,3.52c3.76-2.16,6.97-1.76,9.29-3.2
			c1.2,2.56,2.4,11.05,7.69,12.09c5.53,1.2,11.45-2.4,17.46-6.97c5.93-4.73,12.65-10.65,17.78-13.06c0.96,1.6,3.36,6.57,4.97,10.65
			c6.73-5.37,18.42-27.15,35.08-26.75c1.6-3.76,7.53-17.46,23.15-27.95c15.46-10.49,25.15-11.29,37.24-10.33
			c4.73-6.17,10.89-11.69,17.46-15.62c2,0.8,7.53,4.16,14.42,0.96c6.97-3.2,14.82-15.62,25.15-17.22
			c9.13-1.36,16.02,3.36,16.02,3.36s30.11-29.87,50.86-39.81c-0.8-2.4-2.4-11.45,21.95-31.48c1.36,1.2,0.4,4.57,1.36,4.73
			c0.4,0,6.33-2.56,13.86-8.33c9.29-6.97,20.42-14.26,27.15-16.26c12.65-3.76,26.11,3.92,26.11,3.92s1.6-1.2,3.76-1.76
			c3.2-0.56,5.53-0.96,7.29-1.6c-0.16,4.16,2.16,11.29,0,17.46c0,0,3.36,2,7.93,3.36c-1.36,2.96-4.33,10.49-9.29,14.1
			c4.16,2,4.73,4.33,10.65,6.33c-2.4,3.36-6.33,9.13-8.09,12.65c-1.76,3.76-8.09,19.38-10.89,25.31
			c-2.96,5.93-6.97,16.82-8.89,18.98c-2,2.16-8.89,11.45-14.26,16.02c4.73-1.76,24.19-7.69,32.44-9.93
			c-4.97,7.29-50.86,75.45-50.86,75.45l-92.43,27.55l-45.33,7.69l-236.19-0.16l-20.82-10.33L337.64,937.57z"/>
	</g>
	<g>
		<path class="st10" d="M271.56,406.4c0,0-6.97,0-8.33,0.96c-1.36,0.96,6.97,2.96,9.53,3.92c2.56,0.96,8.09,5.37,9.53,8.89
			c1.36,3.36,50.06,22.99,50.06,22.99l34.44-1.76l11.85-16.42l-22.59-19.78l15.86-46.69l-20.98,3.36l-50.46,30.11l-25.31,9.69
			L271.56,406.4L271.56,406.4z"/>
	</g>
	<g>
		<path class="st11" d="M347.17,421.85c0,0,1.36,2.56,4.73,2.56c7.13,0,13.7,1.76,16.42,5.37c4.57,5.77,17.22,24.19,17.22,24.19
			l30.27,10.89l2-35.64l-33.08-22.99l-37.64,13.86v1.76H347.17z"/>
	</g>
	<g>
		<path class="st12" d="M341.24,435.07c0,0,5.53,0.4,12.49-2.16c6.97-2.56,18.42-8.09,23.39-5.93c6.97,2.96,5.53,12.25,13.06,20.58
			c4.57,5.13,12.89,4.97,17.62,10.49c4.73,5.53,20.98,2.96,20.98,2.96l6.17,33.24l-24.75,31.72l-8.09,39.41h-33.48l-30.6-12.09
			l-15.06-36.44l7.53-36.84L341.24,435.07z"/>
	</g>
	<g>
		<path class="st13" d="M405.96,436.67c0,0,1.2,0.4,2.56,0.4c-0.96,0.8-2.96,2.56-2.16,7.13c0.8,4.57,3.36,10.33,1.2,13.86
			c0.96,1.2,2.4,2.56,3.76,6.57c1.36,3.92,1.76,7.53,10.65,8.09c-2,1.2-3.52,2.8-3.52,2.8s6.17,5.37,9.29,10.33
			c3.2-0.16,11.69-2.8,11.69-2.8l1.76,1.2l3.76-1.6c0,0-3.52-1.36-0.96-9.93c2.4-7.53,4.57-7.13,4.73-7.69
			c0.16-0.56,1.76-8.49,1.76-11.69c1.2-4.16,2.16-16.82,2.16-16.82l-2.56-27.95l-14.42-8.73l-11.69-11.29l-11.05,20.82l-7.29,7.29
			l-0.56,18.02L405.96,436.67L405.96,436.67z"/>
	</g>
	<g>
		<path class="st14" d="M440.64,413.28c0,0,2.56,7.29,3.52,12.89c0.56-1.76,0.56-3.36,0.56-3.36s2,11.05,2.4,15.62
			c0.8-0.16,1.6-0.4,1.76,0.4c0.16,0.8,2,9.69,1.6,14.66c0.96-1.76,5.53-8.73,13.46-13.46c3.2-2,6.97-4.16,10.89-4.33
			c6.17-0.16,10.65,3.92,18.02,3.92c17.78,0,33.88-13.06,45.73-17.06c8.73-2.96,16.26-5.13,21.54-9.93
			c2.56-2.16,7.13-6.97,11.29-14.1c5.53-9.53,11.29-17.78,17.06-18.82c-4.57,0.8-7.93,0.56-7.93,0.56s1.76-1.76,4.73-4.16
			c2.96-2.4,6.57-5.37,11.69-5.37c9.13,0,13.7,1.36,18.82,1.36c5.13-0.16,8.09-1.36,8.09-1.36s5.37,3.76,17.46,3.76
			c12.09,0.16,20.18,1.2,26.51,1.76c6.33,0.56,27.55-1.76,33.64-1.6c6.33,0.16,11.45,2.8,11.45,2.8l-19.62-57.03l-70.48-61.59
			l-41.97,29.71l-64.55,64.55l-62.47,23.15l-13.05,14.66v22.35H440.64z"/>
	</g>
	<g>
		<path class="st15" d="M580.4,385.97c-2.8,0.16-5.13-0.4-5.77-2.4c-2.4-6.73-4.32-7.69-6.33-7.69s-4.73,4.32-6.33,4.73
			c-1.6,0.4-3.52-4.97-3.52-4.97l-1.76-0.8c0,0-10.33,6.73-17.62,14.66c-7.29,7.93-19.22,21.38-24.59,23.79
			c-5.37,2.4-23.79,3.2-30.11,4.57c-6.33,1.36-13.3,5.93-14.26,6.97c-0.96,1.04,2.8,2.16,3.36,3.2c0.56,0.96-6.17,0.56-6.73,1.6
			c-0.4,0.8,1.6,5.37,2.56,7.69c1.76-0.8,3.52-1.36,5.53-1.36c6.17-0.16,10.65,3.92,18.02,3.92c17.78,0,33.88-13.05,45.73-17.06
			c8.73-2.96,16.26-5.13,21.54-9.93c2.56-2.16,7.13-6.97,11.29-14.1C574.47,393.9,577.44,389.34,580.4,385.97L580.4,385.97z"/>
	</g>
	<g>
		<path class="st16" d="M325.38,782.35c0,0-1.6-5.93-16.26-21.22c-4.16-4.33-6.73-7.93-9.53-10.49
			c-6.97-6.57-11.05-8.33-16.02-12.09c-10.89-8.09-22.75-8.09-31.88-18.02c-9.13-9.93-19.78-28.91-27.15-48.3
			c-7.29-19.38-9.29-25.55-9.29-26.11c0-0.56,2-4.32,4.57-3.76c2.56,0.56,2.56,5.53,3.2,6.73c0.16,0.4,2,2.96,4.32,5.53
			c3.76,4.33,9.13,9.53,11.85,17.22c-0.56-6.57-2.8-13.86-2.8-13.86s14.1,8.89,26.11,18.18c12.09,9.29,17.06,12.49,20.58,18.42
			c3.52,5.93,11.85,21.54,15.86,26.11c4,4.57,58.63,21.79,58.63,21.79l25.95,19.38l12.89,28.27l-10.09,15.86l-19.38,4.16
			l-31.48-14.1L325.38,782.35L325.38,782.35z"/>
	</g>
	<g>
		<path class="st17" d="M255.46,684.96c0,0,6.57,10.49,22.59,20.42c14.42,8.73,37.24,16.66,57.59,21.38
			c11.69,2.8,23.39,4.97,33.88,5.13c28.27,0.4,47.74-7.69,71.84-10.33c13.05-1.36,29.07-2.4,45.73-6.33
			c21.38-5.13,34.04-10.89,51.26-18.98c12.49-5.77,23.95-10.09,33.24-15.62c13.05-7.69,22.59-16.26,33.64-18.82
			c-1.36,3.76-2.8,10.49-13.7,17.46c5.77-0.16,13.7-0.56,13.7-0.56s-7.69,4.57-21.22,14.82c-8.33,6.33-19.38,17.06-30.68,24.19
			c-7.29,4.57-15.22,7.93-20.42,10.65c-12.65,6.97-17.78,10.49-26.11,18.98c2.96-0.16,3.2,0,3.2,0s-10.49,1.36-18.02,5.37
			c-1.6,0-4.32-0.56-9.13,0.8c-3.76,1.2-8.73,3.92-13.86,5.37c-7.29,2.16-9.69,1.2-9.69,1.2l1.2,2.4c0,0-9.53-0.16-12.65,0.16
			c0.56,0.16,0.4,0.4,0.4,0.4s-0.4,0-1.6,0.56c-0.96,0.56-2.56,1.6-4.97,2.16c-0.96,0.16-1.76,0.16-2.96,0.4
			c0.4,0.96,3.52,6.33,4.97,9.53c-1.2,0.8-19.22,14.42-19.22,14.42s0.8,1.2,1.36,2.8c0.56,1.76,0.8,4.33,1.36,5.53
			c1.36,2.4,2.16,2.8,2.16,2.8s-2.16,0.4-5.93,1.36c-3.2,0.8-7.13,2.16-12.65,2.96c-1.6,0.16-3.36,0.4-5.13,0.4
			c0.8,1.76,4.33,8.49-2.16,16.26c-6.57,7.69-8.49,8.89-10.49,13.86c-0.56-0.4-1.6-1.2-3.2-2c-2.16-0.96-5.13-2.4-6.17-4.33
			c-0.16,0.8-0.96,3.92-2.4,7.53c-2,5.37-4.97,10.65-5.53,14.66c-2.16-2.4-6.17-7.13-11.69-6.17c-5.53,0.96-9.93,8.49-10.89,10.65
			c0-1.36-0.96-2.4-1.2-0.8c-0.16,1.76-3.2,20.18-20.18,35.08c-0.16-3.76-0.16-12.09-0.56-14.82c-1.6,1.6-3.52,3.92-15.06,8.89
			c-11.29,4.97-9.53,9.93-9.53,9.93s-0.96-7.93,5.13-16.26c6.17-8.33,9.93-12.25,9.93-12.89c0-0.16-0.16-0.96-0.8-1.76
			c-0.8-0.8-2.4-1.76-2.4-2.4c0.96-0.4,10.49-4.97,9.93-14.42c-0.56-8.49-4.16-12.89-6.73-16.02c-0.4-0.4,3.76-3.36,3.2-4.33
			c-0.4-0.56-5.53-4.32-6.17-6.33c0.16-0.96,0.4-2.56,0.8-3.52c0.56-1.76,0.96-2.96,0.8-4.16c-0.4-2-2.56-7.53-3.2-8.09
			c0.56,0.16,4.57,0,4.57,0s-3.2-5.13-3.76-7.53c-0.56-2.4-1.76-8.73-2.4-9.93c1.36,0.16,4.73,0.4,4.73,0
			c0.16-1.2-2.96-3.2-1.6-4.73c0.96,0.16,2.8,0.96,4.57,3.2c-0.96-2.56-2.56-7.53-5.93-9.53c1.6-0.56,6.97-2,11.69,0.8
			c4.73,2.8,6.33,6.73,6.33,6.73s2.8,2.16,7.13,5.37c4.97,3.92,11.29,9.53,21.38,13.46c2.16,1.2,7.69,1.2,11.69,0.4
			c2.4-0.56,3.76-1.36,4.97-2c0.96-0.56,1.76-0.8,1.76-0.8s-1.6-3.2-2.96-4.97c1.36,0,2.96,0.16,2.96,0.16s0.96-2.16-3.36-6.33
			c0.96-0.96,2.16-1.6,2.16-3.2c-1.36-0.16-3.76-2.16-4.33-2.96c0.8-0.56,2-2.4,3.36-2.96c-1.2-0.96-4.16-4.97-5.53-5.37
			c1.36-0.4,3.76-1.76,3.76-1.76s-6.73-1.76-8.89-3.2c-2.16-1.6-5.37-4.33-7.29-5.13c-2-0.8-5.53-1.2-6.97-2.8
			c1.36,0.4,3.52,0,5.13,0c1.2,0,1.76,0.16,2.16,0.16c-0.16-0.56-0.16-1.76,2.96-2.16c2.96-0.56,4.33-1.36,4.33-1.36
			s-2.96-0.16-6.33-3.36c-3.36-3.2-6.17-5.77-8.09-6.17c-2-0.4-5.77,1.36-8.09,1.2c-3.2-0.4-4.57-2-4.57-2s-10.65,0.96-34.28-13.46
			c-20.42-12.49-29.31-23.55-29.31-23.55s-2.4-0.8-5.53-2.56C265.8,704.18,255.14,695.85,255.46,684.96L255.46,684.96z"/>
	</g>
	<g>
		<path class="st18" d="M550.12,204.24c0,0,2.8,0.8,4.73,3.2c3.76,4.32,6.17,12.49-2.4,21.22c3.36,1.2,4.73,1.6,7.69,1.2
			c-2.96,3.52-9.69,11.05-10.09,17.62c-0.4,5.37,2.96,6.97,2.96,6.97s-5.13,5.93-5.37,15.86c1.2-1.36,3.92-4.32,7.93-7.53
			c5.93-4.73,14.1-10.09,19.62-13.46c-0.16,2.16,0.56,4.16,0.56,4.16s10.33-8.49,18.98-4.73c3.92,1.76,2.16,7.29,2.16,7.29
			s5.37-2,9.13,1.76c3.76,3.76,9.13,13.46,11.85,17.22c1.2,1.76,4.33,5.13,7.53,10.33c3.76,6.17,7.93,14.66,10.89,22.99
			c0.16-4.16,1.2-10.65,13.06-6.57c11.85,4.16,25.31,12.89,36.6,30.11c11.29,17.22,14.1,36.6,19.78,43.97
			c5.77,7.13,11.69,18.98,12.09,23.95c0.4,4.97-1.76,20.98,10.09,64.31c3.36-13.46,8.49-43.33,8.49-43.33l2.8-26.35l3.2-81.53
			l-85.14-70.72l-66.56-48.3l-43.33,4.16L550.12,204.24L550.12,204.24z"/>
	</g>
	<g>
		<path class="st19" d="M708.31,325.58c0,0-1.2-7.93-21.22-21.38c-20.02-13.3-35.64-13.3-50.06-24.59
			c-11.05-8.89-22.59-29.31-30.11-36.04c-7.29-6.65-8.49-25.87-8.49-25.87l24.59-20.58l36.6-52.86l30.92-34.04l14.82,20.58
			l20.58,24.19l11.45,48.54l4.16,71.04L708.31,325.58L708.31,325.58z"/>
	</g>
	<g>
		<path class="st20" d="M733.06,410.72c0,0,1.36-15.46-3.92-31.88c-5.29-16.42-16.82-45.57-22.19-56.47
			c-2.16-12.09-0.56-13.06,1.76-14.42c2.4-1.36,11.05-6.33,15.86-23.79c4.73-17.46,19.62-18.02,19.62-18.02l9.13-6.73l13.86,34.68
			l12.09,31.32l3.76,23.95l2.8,20.42l-6.57,43.17l-32.44,29.31L733.06,410.72L733.06,410.72z"/>
	</g>
	<g>
		<path class="st21" d="M272.12,952.63c0,0-7.29-13.46-7.69-19.22c-0.16-5.53,2-9.13,2-9.13s-2.8-4.16-5.37-5.13
			c0.56-2.8,1.6-6.17,3.76-8.49c2.16-2.56,6.33-5.93,7.13-7.13c0.8-1.2,1.2-2.8,3.52-3.2c2.4-0.4,4.97-0.4,4.97-3.52v-5.77
			c0,0,0.96-0.56,1.76-1.6c0.56-0.8,0.96-1.76,1.36-2c0.8-0.4,4.57-1.6,6.57-1.2c2,0.4,7.29,2.56,10.09,2.4
			c5.77-0.16,12.49-4.57,23.15-2.56c16.02,2.96,19.78,13.86,29.07,20.02c6.33,4.33,12.89,2.4,13.86,2.4h2.16
			c0.4,0,3.36-3.36,4.97-3.2c3.2,0.16,3.52,2.8,5.53,2.96c4.73,0.56,13.86-2.4,18.42-1.2c2.16,0.56,4.97,2.8,5.77,5.77
			c0.96,2.96,0.16,6.73-2.16,8.89c-4.97,4.57-9.69,8.89-10.65,12.65c1.36,0.96,3.76,3.2,3.76,3.2s-2.16,2-6.17,3.92
			c-1.76,0.8-4.57,2.16-7.69,2.56c-5.93,0.56-13.3,1.36-17.62,7.69c-4.33,6.33-19.22,2.8-19.22,2.8L272.12,952.63L272.12,952.63z"/>
	</g>
	<g>
		<path class="st22" d="M706.95,731.89c0,0,12.49-16.66,16.82-24.91c4.33-8.49-13.7-116.21-13.7-116.21l36.2-118.62l-0.96-38.6
			c0,0,1.76-35.64,5.93-51.1c4.97,8.89,20.42,19.62,23.79,25.31c1.6-10.89,6.97-33.88,6.17-58.39c2.96,4.57,10.09,50.46,10.09,50.46
			l7.13,30.92l9.29,32.84l10.33,34.68l6.17,23.95l3.52,5.77l2.96,10.09l2.8,10.89l8.09,25.55l4.73,20.98l3.76,38.04
			c0,0,1.36,4.73,1.76,8.89c0.16,4.16-0.56,6.57-0.56,7.29c0,0.8,1.36,9.13,0.8,15.46c-0.8,6.33-0.8,11.29-5.77,15.86
			c-4.97,4.57-8.09,31.72-8.09,31.72l-8.89-5.93c0,0,1.76-8.09-2.4-15.46c-4.16-7.29-12.25-8.89-16.82-7.69
			c-4.57,0.96-13.7,2.4-16.66,4.97c-2.8,2.56-9.69,10.49-16.02,14.1c-7.93,4.73-20.82,5.13-27.71,6.73
			c-6.97,1.6-14.66,6.33-22.75,11.85C718.56,726.77,710.07,730.69,706.95,731.89L706.95,731.89z"/>
	</g>
	<g>
		<path class="st23" d="M706.95,906.89c0,0,6.97,4.57,19.78,7.69c12.81,3.12,45.57,21.95,45.57,21.95l27.55,16.82l34.04,2.56
			l29.87-4.16c0,0,0.96-12.65-0.96-59.83c-2-47.33-3.52-54.06-3.52-57.59c0-3.52-1.2-63.59-2.56-76.65
			c-1.36-13.06-0.4-26.35-0.8-34.04c-0.4-7.69-4.73-39.01-6.73-47.09c-2.16-8.09-6.33-12.09-6.97-12.09
			c-0.56,0.16-3.92,15.22-3.92,18.98c0,3.76-0.8,12.89-0.8,15.22c-0.56-0.16-0.8-1.6-0.8-2.16c-0.8,2-1.76,5.53-2.16,5.93
			c-0.4,0.4,0.56-3.36,0-4.16c-0.56-0.8-1.6-0.4-1.36-2.4c0.16-2,0.56-3.52,0.56-3.52s-2.4,3.52-4.16,12.49
			c-1.76,8.89-1.76,9.13-2.4,9.93c-0.56,0.96-3.76,4.16-3.92,5.37c-0.16,2.16,2.96,4.32,3.2,5.53c0.16,2-2.8,11.29-3.76,15.86
			c-0.96,4.57-0.56,13.46-1.6,18.02c-0.8,4.16-1.6,6.57-4.33,8.33c2,0.4,3.92,0.96,3.92,0.96s2.8,11.85-4.32,21.95
			c-2.56,3.52-3.2,5.13-5.93,8.33c-5.37,5.93-9.53,12.65-9.93,17.06c-0.4-1.6-0.56-3.92-0.56-3.92s-8.33,9.69-11.85,15.22
			c-4.57,7.13-10.89,6.73-12.65,8.49c-1.76,1.76-2.16,4.97-1.6,7.53c-1.6,0.4-4.57,0.96-6.57,7.13c-0.96,3.2-3.36,6.33-7.13,8.49
			c-3.76,2.16-8.33,2.8-10.65,3.36c2,0.56,2.8,0.56,3.76,1.2c-1.2,2-6.73,5.13-12.89,9.13c-6.17,3.76-9.13,9.29-10.65,12.89
			c-1.6,3.36-3.92,5.53-7.69,5.93c1.6,0.96,3.92,3.2,5.13,3.92c-1.76,0.4-4.73,0.4-10.09,4.97
			C711.43,905.13,709.51,906.49,706.95,906.89L706.95,906.89z"/>
	</g>
	<g>
		<path class="st24" d="M587.93,951.27c0,0,4.97-7.69,17.46-12.49c12.49-4.97,25.71-5.93,30.92-7.53c4.97-1.6,8.89-3.76,15.06-4.97
			c-0.56,4.73-0.8,8.49-2.16,11.69c4.57,0.8,16.02-8.09,22.19-10.09c6.17-2,20.18-4.97,21.38-5.93c1.2-0.96,3.76-6.73,4.57-6.97
			c0.8-0.16,2.96,1.2,4.33,1.2c2.56,0,20.58-16.66,34.84-16.42c14.1,0.16,30.11,11.85,27.71,22.35c3.76-2.16,7.69-4.16,10.89-3.36
			c-0.4,1.36-0.56,2.96-0.56,2.96s7.69-1.76,9.69,0.8c2.16,2.56,0.96,4.97,6.17,11.05c4.16,5.13,2.96,6.33,2.16,8.09
			c2,0.56,11.85,3.92,20.98,12.49c9.13,8.49-72.88,3.2-72.88,3.2l-151.29-1.36L587.93,951.27L587.93,951.27z"/>
	</g>
	<g>
		<path class="st25" d="M825.88,615.44c0,0-2.56,13.86-7.13,22.59c-4.57,8.73-9.53,20.82-9.53,20.82s0-4.33,0.96-8.09
			c-5.77,3.36-19.78,11.45-23.79,15.06c-3.76,3.36-10.09,9.29-11.69,12.09c3.76-11.05,7.69-20.98,8.33-25.55
			c-5.77,4.16-32.68,26.35-46.69,41.01l-43.65,35.32c0,0-6.73,3.76-15.46,7.29c-7.53,3.2-16.42,5.93-22.99,8.49
			c1.76-4.73,4.57-8.89,8.49-12.89c4.16-3.92,16.66-17.46,18.58-23.79c1.76-6.57,2.16-10.49-0.16-16.02
			c-2.16,0.56-7.13,0.8-10.49,1.76c-3.36,0.96-6.97,4.57-6.97,4.57s2.56-14.66,8.09-28.51c-4.16,0.16-11.29,1.36-11.29,1.36
			s9.93-16.66,26.91-28.27c-2.8,0.56-9.13,2.16-15.22,4.73c-9.93,4.16-20.82,10.33-28.91,13.7c4.57-6.33,36.6-52.06,55.66-94.67
			c18.98-42.53,26.11-53.42,30.27-76.25c2.16-11.29,1.6-27.95,2.16-42.93c0.56-14.82,2.4-28.11,1.2-37
			c4.97,6.17,23.55,23.55,24.19,62.39c0.56,38.84-17.78,91.31-37.24,119.58c4.73,1.36,17.06,2.96,29.71-18.98
			c12.65-21.95,12.49-28.11,17.06-37.24c0.56,4.57,0.4,6.17,0.4,6.17s18.42-22.35,27.15-50.46c1.76,12.09,6.97,22.75-1.2,44.93
			c-7.29,20.02-16.82,24.91-16.82,24.91s4.73-0.8,11.69-4.97c1.2,2.96,0.96,6.33,2.96,7.53c2,1.2,4.73,3.2,5.13,5.13
			c2.16-3.2,5.53-7.29,6.57-10.33c-0.8,6.33-1.36,34.04,1.6,48.14c6.17-0.56,12.49-0.96,16.82-12.09
			c-2.96,10.89-2.96,17.46-0.96,26.75C822.92,619.44,825.88,615.44,825.88,615.44L825.88,615.44z"/>
	</g>
	<g>
		<path class="st26" d="M617.8,173.97c0,0-6.17,2.56-16.66,2.56c-9.13,0-6.57-3.52-20.82-3.52c-21.95,0-98.59,12.65-112.05,12.49
			c-8.73-0.16,29.47,3.76,29.47,3.76l97.63,1.36l19.62-1.6l7.29-14.82L617.8,173.97z"/>
	</g>
	<g>
		<path class="st27" d="M364.63,364.83c0,0-12.49,9.53-17.78,16.82c-5.37,7.29-8.09,12.09-14.1,18.02c2,0.16,4.16-0.56,4.16-0.56
			s0,1.6-0.96,2c2-0.16,3.52,0.56,4.57,1.6c-1.76,0.96-6.57,5.77-2.8,11.45c2.8,4.33,8.73,4.73,8.73,4.73s-1.36,3.92,4.33,3.52
			c12.25-0.56,25.95-5.93,32.28-4.57c6.33,1.6,9.93,2.16,14.42,9.93c4.73,7.69,8.89,8.89,8.89,8.89s2.8-7.13,2.16-17.78
			c3.76-9.13,3.76-18.02,3.76-18.02l-4.16-30.68l-18.18-22.99l-23.55,13.06L364.63,364.83L364.63,364.83z"/>
	</g>
	<g>
		<path class="st28" d="M386.98,360.26c0,0,1.76,4.16,9.13,4.57c-0.8,1.76-0.8,2-0.56,3.36c0.16,1.36,0.4,3.36,0.4,3.36
			s0.96-0.4,2.16-1.6c0.4,1.76-0.4,4.57,0,6.57c0.4,2,1.2,3.52,1.2,3.52s0.16-0.4,0.4-0.8c0.16-0.4,1.6,4.32,5.53,7.93
			c0-0.96,0.4-1.6,0.4-1.6s0,1.36,0.96,2.8c-0.4-0.16-0.8-0.56-0.8-0.56s0.4,12.65,2.56,19.22c0.56-0.8,0.8-0.96,0.96-1.36
			c0-0.4-0.16,3.52-0.56,6.33c-0.56,2.8-0.16,6.73-0.16,6.73s2.16-1.76,4.73-2.8c2.4-0.96,6.33-3.92,8.73-10.49
			c2.4-6.57,3.2-11.45,3.2-11.45s1.36,2.56,1.6,4.73c0.16,2,3.92,0.96,3.92,0.96l0.8-8.73l4.73-19.78l4.33-12.25l20.82-32.44
			l37.64-28.91l32.84,7.53l27.71-37.64l-47.74-28.67l-45.17,4.73l-41.01,56.79l-32.84,51.5L386.98,360.26L386.98,360.26z"/>
	</g>
	<g>
		<path class="st29" d="M623.57,278.09c0,0-2.8,0.56-10.89,4.73c-8.09,4.16-13.7,5.53-16.82,11.69c-3.2,6.17-3.36,11.05-3.36,11.05
			s5.53-2.4,8.73-3.2c3.36-0.8,7.13-0.56,6.73,0.8c-0.4,1.2-1.6,2.56-1.6,2.56s6.33-0.16,6.17,2.96c-0.16,3.2-1.2,6.57-2.4,8.09
			c-1.2,1.6-6.17,3.92-6.73,5.77c-1.36,3.76,0.56,3.92-0.16,6.97c-0.56,2.96-3.2,8.73-11.85,18.82
			c-8.89,10.09-12.65,17.22-12.65,17.22s-4.33-8.09-6.57-15.06c-1.6,0.8-10.09,5.53-10.09,5.53l-19.7-68.64l0.4-4.57
			c0,0,1.76-2.16,2.16-6.17c-2.96-0.96-3.36-1.76-7.29-5.53c-3.92-3.76-7.13-8.33-13.7-11.45c-0.96-1.76-2.16-4.16-6.97-5.13
			c-4.73-0.96-7.69-1.76-7.69-1.76s2.56-0.96,3.76-2.96c-2.96,0.4-5.37,1.36-11.85,1.2c-6.57-0.16-7.29-0.4-10.89,0.16
			c-3.6,0.56-7.93,2.16-9.53-3.36c-1.76-1.36-5.53-0.16-8.73,4.57c-3.2,4.73-4.32,8.49-10.49,10.33c-0.16,1.2-0.8,4.32-2.8,7.69
			c-1.76,2.96-4.57,5.93-8.33,10.33c-5.93,6.97-4.97,18.42-14.42,27.15c-9.53,8.73,1.6-24.19,1.6-24.19l15.22-36.44l43.33-42.37
			l67.28-4.57l6.57,34.84l32.84,11.29L623.57,278.09L623.57,278.09z"/>
	</g>
	<g>
		<path class="st18" d="M634.22,285.78l-28.27-40.77l-19.78-15.22c0,0-14.1-25.95-15.06-26.75c-0.8-0.56-14.1-2-22.59-2.56l1.6,3.92
			c0,0,2.8,0.8,4.73,3.2c3.76,4.32,6.17,12.49-2.4,21.22c3.36,1.2,4.73,1.6,7.69,1.2c-2.96,3.52-9.69,11.05-10.09,17.62
			c-0.4,5.37,2.96,6.97,2.96,6.97s-5.13,5.93-5.37,15.86c1.2-1.36,3.92-4.32,7.93-7.53c5.93-4.73,14.1-10.09,19.62-13.46
			c-0.16,2.16,0.56,4.16,0.56,4.16s10.33-8.49,18.98-4.73c3.92,1.76,2.16,7.29,2.16,7.29s5.37-2,9.13,1.76
			c3.76,3.76,9.13,13.46,11.85,17.22c1.2,1.76,4.33,5.13,7.53,10.33c3.76,6.17,7.93,14.66,10.89,22.99c0.16-3.2,0.8-7.69,6.33-7.69
			L634.22,285.78z"/>
	</g>
	<g>
		<path class="st30" d="M210.37,401.59c0,0-2-4.97,0-14.66c2-9.69,5.13-14.26,6.17-28.51c0.96-14.26,10.33-32.04,10.33-32.04
			l25.71-11.69l18.18,4.97l5.37,24.35l-22.99,12.65c0,0-1.2,5.37-7.69,9.69c-6.57,4.33-15.46,7.69-17.62,12.09
			c-2.16,4.57-2.8,8.49-2.8,8.49s-6.57-1.36-10.49,2.96C210.37,394.3,210.53,398.23,210.37,401.59L210.37,401.59z"/>
	</g>
	<g>
		<path class="st31" d="M262.27,395.1c0,0-2.16,1.36-3.76,4.73c-1.6-2.56-5.37-17.78-5.53-31.48c-0.16-13.7-0.96-17.06,2.16-21.79
			c3.2-4.73,15.62-9.69,13.86-18.18c-1.76-8.09-9.13-11.45-18.18-9.13c-6.33,1.6-11.05,15.06-17.62,21.79
			c-4.97,5.13-10.89,4.32-12.49,7.13c-2.16,3.76-0.16,7.53-0.8,9.93c-0.16,0.8-2.16,5.13-5.77,10.33
			c-7.29,10.49-19.62,25.31-21.22,38.6c0.56-7.53,0.16-7.69,2.16-16.02l-1.2-2l7.93-25.95l5.13-21.38l11.45-35.8l20.18-36.6
			l19.62-21.95l20.42,1.36l2.4,30.68l11.69,57.59l24.59,30.27l-39.41,26.51L262.27,395.1L262.27,395.1z"/>
	</g>
	<g>
		<path class="st32" d="M274.53,406c0,0-3.36,0.8-4.57,0.16c-1.2-0.56-2.4-1.36-2-2.16c0.4-0.8,2.56-2.16,2.56-2.8
			c0-0.56-0.16-2.16-2-2.4c-1.84-0.24-2.4,0.96-2.4,0.96s-1.76-1.36-3.2-1.6c1.2-0.16,2.56-0.16,2.56-0.16s-3.36-1.6-6.97-2
			c2-1.2,5.93-4.73,8.49-4.73c2.56,0,4.16-0.4,3.76-1.76c-0.4-1.36-2.4-3.36-4.57-4.16c0.8-0.96,1.36-2.4-0.56-6.33
			c-2-3.92-1.2-6.57-0.56-7.53c0.56-1.2,2.56-3.36,3.52-4.73c0.96-1.36,1.76-3.2,3.36-4.16c0.8-0.56,3.36-1.6,5.93-2.56
			c2.8-0.96,5.13-2.16,6.73-0.96c1.76,1.2,0.96,2.8,0.96,2.8s5.53-2,10.49,0.56c4.97,2.4,17.06,3.92,17.06,3.92l4.33,8.73
			l-28.67,24.59l-11.85,5.93L274.53,406z"/>
	</g>
	<g>
		<path class="st33" d="M314.33,365.79c0,0-8.89,5.93-10.89,8.09c1.2,0.16,3.2,0.96,2.4,2.16c-0.96,1.2-6.73,5.37-9.93,9.29
			c-3.36,3.92-6.57,8.89-7.69,11.29c-1.2,2.16-10.33,8.49-13.46,9.29c6.57,0,19.78-8.09,24.75-8.09c-0.16,2.4,1.36,5.13,4.16,5.37
			c2.8,0.16,10.89,1.76,21.79-4.97c10.89-6.57,7.29-11.45,11.85-14.66c8.73-5.77,12.25-10.89,17.06-14.1
			c4.73-3.2,7.29-3.92,7.29-3.92s0.16-2.4,1.6-2.16c1.36,0.16,1.76,1.36,1.76,1.36s8.33-5.93,18.98-7.53
			c-0.4-0.16-0.56-0.56-0.56-0.56s0.8-0.4,0.96-0.8c0,0,0.56-0.8,0.96-0.4c0.4,0.4,0.96,3.36,1.76,4.57
			c1.76-0.8,5.13-8.33,5.13-8.33l8.09-23.15V307.4l-6.33,1.2l-47.49,20.18l-28.83,29.87L314.33,365.79L314.33,365.79z"/>
	</g>
	<g>
		<path class="st34" d="M451.13,262.07c0,0,4.16-0.96,7.29-2.96c-0.96,2.56-0.96,5.37-5.13,11.45c-4.16,6.17-4.32,6.97-7.69,13.3
			c-3.36,6.57-3.76,16.02-6.97,20.18c2.56-1.2,4.57-1.36,4.57-1.36s-3.2,2.8-4.57,5.77c-1.36,2.96-3.76,9.13-9.69,12.89
			c-5.93,3.76-13.46,6.17-21.54,15.06c-8.09,8.73-16.42,19.78-20.58,23.79c2.16-3.76,5.13-11.29,5.93-16.26
			c0.8-4.97-0.16-10.89,1.2-17.46c1.36-6.57,1.36-11.29,7.93-22.75c6.57-11.45,17.78-51.26,17.78-51.26l24.19-7.69L451.13,262.07
			L451.13,262.07z"/>
	</g>
	<g>
		<path class="st35" d="M433.67,247.41c0,0-7.29,10.49-9.29,19.78c-2,9.29-0.16,8.49-1.36,13.05c-1.2,4.57,0,8.49,0,8.49
			s3.2-5.77,10.09-9.93c6.89-4.16,12.49-7.13,15.86-10.65c3.36-3.76,6.17-9.93,13.46-14.66c-2.96-0.4-7.13-1.76-7.93-1.6
			c2.96-3.36,11.85-8.49,20.82-14.66c8.89-6.33,8.33-8.89,22.75-15.22c-4.73,0.8-6.97-0.4-10.89,0c1.6-3.36,7.13-4.97,12.65-10.49
			c5.53-5.53-3.52-13.7-3.52-13.7l-42.21,25.55L433.67,247.41L433.67,247.41z"/>
	</g>
	<g>
		<path class="st36" d="M319.06,228.35l0.96-7.69l12.09-19.38l12.65-34.04v-46.53l-0.96-26.91l2-17.62l1.52-5.61l1.6-2.16
			l10.33,5.37l14.26,19.38l1.36,37.4l-13.86,59.03l-39.57,43.17L319.06,228.35z"/>
	</g>
	<g>
		<path class="st26" d="M350.53,66.24c0,0-6.33,0.16-7.69,26.51c-1.36,26.35-2,40.21-2.96,53.26s-3.2,20.98-4.33,28.67
			c-1.2,7.69-1.76,18.18-5.37,24.59c-1.6,2.96-4.97,12.25-12.89,19.22c-8.89,7.69-22.19,13.06-24.19,13.46
			c-3.52,0.8-21.38,2.56-28.67,6.57c-2.56,1.36-6.97,2.96-11.85,7.53c-9.69,8.73-22.59,24.35-31.88,43.17
			c-14.26,28.11-28.51,107.48-28.51,107.48l3.2-5.37c0,0,0.4-7.13,7.53-19.62c6.97-12.49,4.97-26.51,14.66-50.46
			c3.76-9.13,8.49-20.98,14.26-31.08c9.13-16.42,20.18-30.52,31.32-38.2c18.18-12.49,38.2-15.22,38.2-15.22l21.54-14.26
			c0,0,3.76-7.29,8.73-15.62c6.97-11.69,15.86-24.75,17.78-43.73c2.96-28.11-4.16-46.53-3.76-63.19c0.4-16.66,0.56-28.91,3.92-31.88
			S350.53,66.24,350.53,66.24L350.53,66.24z"/>
	</g>
	<g>
		<path class="st37" d="M350.53,191.99c0,0,9.53-23.39,13.86-44.13c0.8-4.16,2.4-8.33,2.8-11.69c2-19.62,2.56-27.71,0-38.44
			c-2-7.93-9.69-15.06-13.7-20.58c-3.92-5.77-5.77-7.93-4.97-9.13c0.8-1.2,3.92-3.2,6.97-2.96c2.96,0.16,10.65,0.8,17.06,7.93
			c6.17,7.13,11.05,31.32,11.05,31.32l5.13,31.88l13.06,40.21L350.53,191.99L350.53,191.99z"/>
	</g>
	<g>
		<path class="st38" d="M451.08,177.88c0,0-7.49-0.78-10.69-1.58c0.16,1.6-5.68-3.93-8.73-1.92c-3.36-1.36-34.84,1.36-34.84,1.36
			s-14.66-2.56-19.22-21.95c-3.2-12.89,2.4-30.68,0.56-42.37c-2.8-17.22-6.73-20.58-7.13-25.95c-0.4-5.37-0.8-6.73-0.8-10.09
			c-1.76-0.4-2.8-0.96-4.57-0.96c-0.4-1.6,0.4-2.96-1.36-5.77c0.96,0.4,7.53,1.2,15.22,8.49c6.33,5.93,6.33,8.09,7.29,9.29
			c1.2,1.2,10.89,9.53,15.06,17.78s12.25,34.68,14.1,39.01c0.56,1.76,1.76,3.52,4.73,7.53c4.65,5.77,38.14,26.32,45.83,27.93
			L451.08,177.88z"/>
	</g>
	<g>
		<path class="st26" d="M387.94,86.83c2.96,4.73,8.49,14.26,13.06,24.35c4.73,10.65,7.53,19.38,13.46,26.51
			c-3.2-9.29-8.89-27.55-12.25-34.04C398.43,96.76,390.74,89.39,387.94,86.83L387.94,86.83z"/>
	</g>
	<g>
		<path class="st39" d="M333.47,218.5c0,0-8.09,2-23.15,9.93c-4.97,2.56-9.69,4.73-14.26,6.73c-11.85,5.37-24.59,10.33-34.68,13.06
			c0.8,0.96,1.2,1.36,1.2,1.36s0,3.92,2.16,6.17c-1.2,1.2-17.22,12.09-12.49,48.54c3.2-1.2,6.97-2.8,7.53-2.8
			c0.96,0.16,1.2,2.8,2.4,2.8c1.2,0,5.13-1.6,9.29-6.97c-0.16,2.16-2.56,23.95,10.33,38.6c2.4-2.8,8.49-12.09,8.49-12.09l0.16-2.96
			c0,0,0.56-10.33,3.92-19.78c3.36-9.53,9.93-16.42,9.93-16.42l34.28-48.94L333.47,218.5L333.47,218.5z"/>
	</g>
	<g>
		<path class="st40" d="M301.44,290.34c0,0-2.4,1.76-5.13,2.56c-0.56-2-1.36-8.89,3.36-15.62c5.53-8.09,17.62-18.58,20.98-26.91
			c2.16-5.37,1.2-18.82,20.42-36.04s26.75-23.15,26.75-23.15l31.08-15.62l38.2,15.06l-18.98,74.41l-14.74,34.84l-58.63-11.05
			L301.44,290.34L301.44,290.34z"/>
	</g>
	<g>
		<path class="st41" d="M323.78,270.16l7.29-9.13v-6.49c0,0,8.09-2.16,16.82-11.05c8.73-8.89,20.82-25.95,31.48-24.91
			c10.65,1.2,11.69,23.15,12.09,29.31c0.4,6.17,1.76,20.18,3.92,27.71c2.4,7.53-25.95,36.04-25.95,36.04l-19.22,14.66L323.78,270.16
			z"/>
	</g>
	<g>
		<path class="st42" d="M346.37,346.17c0,0,5.93-9.29,1.6-11.29c2.56-5.77,7.29-11.85,7.29-11.85s3.36-8.33,14.26-18.58
			c10.89-10.33,17.62-17.06,19.38-23.95c1.76-6.97,1.76-13.7,1.76-13.7s2.16,1.76,3.76,2.56c1.76,0.8,10.09,7.69,8.89,21.54
			c-1.2,13.86-6.33,19.62-6.33,19.62s-4.97,4.97-8.49,7.53c-3.76,2.56-5.13,5.53-11.45,5.77c0.96-0.8,2.16-1.2,2.16-1.2
			s-6.57-0.8-10.09,2.4c-3.52,3.2-11.05,13.06-14.82,16.02C350.53,343.44,346.37,346.17,346.37,346.17L346.37,346.17z"/>
	</g>
	<g>
		<path class="st43" d="M612.68,190.39c0,0-12.65-5.13-29.47-5.77c-16.82-0.56-41.41,0.4-65.52,0.56
			c-25.95,0.16-49.5-8.89-82.17-10.49c-5.37-3.2-18.98-17.22-61.59,12.49c2.56-0.16,30.92-6.57,40.77,5.77
			c9.93,12.25,7.13,33.08,5.77,38.04c-2.56,11.05-10.89,27.15-14.26,38.44c-3.36,11.29-2.56,17.22-4.97,25.15
			c-2.4,7.93-7.69,11.85-4.57,20.98c4.16-2.56,6.33-2.56,13.3-18.18c6.97-15.62,5.53-26.75,17.06-39.97
			c11.29-13.3,30.11-31.48,37.24-36.04c7.13-4.57,63.91-34.04,123.34-5.93C601.94,213.93,612.68,190.39,612.68,190.39L612.68,190.39
			z"/>
	</g>
	<g>
		<path class="st44" d="M397.87,179.49c0,0-0.16-1.36-0.4-1.76c-0.96-2-2.16-3.2-2.16-3.2s-14.1-2.56-21.22-1.76
			c-12.49,1.36-23.79,16.82-29.07,24.75c-5.37,7.93-11.85,20.18-18.98,26.51c0.16-0.96-0.4-1.76-0.4-1.76s0.4,0.56-0.4,1.36
			c-0.8,0.8-0.8,1.2-0.4,1.6l1.2,1.2c0.4,0,11.45-4.97,26.51-18.98c16.02-14.66,28.27-22.19,34.68-24.75
			C392.1,180.45,397.87,179.49,397.87,179.49L397.87,179.49z"/>
	</g>
	<g>
		<path class="st45" d="M671.3,119.26c0,0-2.56,3.2-5.77,6.73c-7.13,7.53-16.42,16.02-24.35,24.75
			c-7.53,8.33-16.02,14.82-25.55,25.71c-9.53,10.89-20.58,22.99-23.39,26.51c-2.56,3.52-4.57,9.29-4.57,12.25
			c-1.36-0.96-2.96-2-2.96-2s0.8,1.6,2.4,3.52c2,2.8,5.13,6.33,6.73,8.49c2.56,3.52,3.92,7.69,4.16,9.13
			c0.96,0.16,7.13,1.36,14.82-11.29c7.69-12.65,17.78-26.51,17.78-26.51l16.02-23.79l10.09-20.18L669.38,130L671.3,119.26
			L671.3,119.26z"/>
	</g>
	<g>
		<path class="st26" d="M687.72,103.09c0,0-9.69,7.93-13.46,12.65c-3.76,4.73-12.65,17.22-12.65,17.22l3.2-0.4l16.26-14.42
			l6.33-11.29L687.72,103.09L687.72,103.09z"/>
	</g>
	<g>
		<path class="st46" d="M684.76,739.58c0,0-0.16-6.57,3.52-10.49c3.76-3.92,13.3-9.69,22.59-31.32
			c9.29-21.54,10.33-26.51,10.33-26.51s-16.66,14.26-26.91,17.62c2.4-4.97,3.76-8.49,4.97-11.05c-1.36-1.2-7.13-2.56-7.69-3.2
			c3.2-3.2,4.97-11.05,11.45-16.26c8.33-6.33,23.55-17.22,35.4-26.91c11.85-9.69,35.08-32.28,38.04-38.84
			c1.76,2.56,2.16,4.16,2.16,4.16s-11.69,15.22-17.78,24.91c-5.37,8.33-4.97,13.06-4.97,13.06l11.05-4.73c0,0,3.2,11.85-11.29,29.87
			c6.33-2.4,8.89-0.96,12.49-2.96c-5.93,3.76-14.1,8.89-21.79,22.99c-7.53,14.1-17.78,30.52-35.08,40.77
			C694.45,731.49,684.76,739.58,684.76,739.58L684.76,739.58z"/>
	</g>
	<g>
		<path class="st47" d="M641.35,198.72c0,0-6.57,13.7-7.53,24.35c-0.16,2.56-0.8,4.57-0.8,7.53c-0.16,9.53,0.56,20.18-1.6,25.15
			c-0.8-2-1.2-3.36-2-4.16c-1.2,3.36-3.36,13.86-5.13,17.78c-0.8-2.56-2.56-11.45-2.4-21.95s0.4-12.49,0.4-14.66
			c-0.4,3.2-2.56,7.53-3.36,10.09c-1.2-2.16-2.56-4.97-4.16-7.29c-0.96,1.6-2.16,3.92-3.2,5.13c-0.16-0.96-0.56-3.52-0.8-7.13
			c-0.16-4.16-0.4-9.53-0.16-10.65c0.4-2.16,3.76-10.65,10.89-18.42c8.49-9.29,17.22-27.15,19.78-32.68
			c2.56-5.53,13.46-28.51,13.46-28.51h8.33l-12.09,27.55c0,0-7.29,15.06-11.05,20.58c-3.76,5.53-11.69,21.38-15.22,27.55
			c2.56-3.36,4.73-5.13,7.29-8.33C634.46,208.41,641.35,198.72,641.35,198.72L641.35,198.72z"/>
	</g>
	<g>
		<path class="st48" d="M687.88,102.04c0,0-1.6,5.77-6.33,11.45c-4.97,5.93-15.62,13.86-20.82,20.18
			c-4.73,6.17-14.26,22.99-9.93,42.93c1.6-4.32,4.57-12.89,12.49-22.59c7.93-9.69,16.42-20.82,20.58-29.47
			c4.16-8.73,4.73-15.62,4.73-15.62l1.6-2l-0.96-4.57L687.88,102.04L687.88,102.04z"/>
	</g>
	<g>
		<path class="st49" d="M688.28,101.08l-0.4,0.96c0,0,1.2,0.4,0.96,2c0,0.8,0,3.92-0.4,6.57c-0.4,2.8-1.2,4.97-1.36,6.73
			c0,3.76,0.56,8.09-4.73,18.82c-1.6,2.96-2.56,5.53-3.36,7.29c-2,4.32-2.4,4.97-4.16,6.97c2.8-1.6,12.89-7.93,18.02-6.97
			c-3.52,2-8.89,5.93-12.25,11.05c0.8,0.16,4.16,0.8,9.53,0c8.89-1.36,18.82-4.57,27.55-3.92c9.53,0.56,5.77-11.45,5.77-11.45
			l-11.05-24.19l-20.82-14.66L688.28,101.08L688.28,101.08z"/>
	</g>
	<g>
		<path class="st50" d="M742.59,282.25c0,0-9.29-9.29-13.06-41.17c-3.76-32.04-2.96-79.21-2.96-79.21l-7.53-18.42
			c0,0-1.6-12.25-5.53-16.82c-3.92-4.57-11.69-12.25-15.22-16.02c-3.52-3.76-7.53-8.89-9.93-9.69c1.2-2,6.57-13.3,27.15-13.46
			c20.58-0.16,26.91,11.29,29.07,15.46c2.16,4.16,11.85,22.19,15.46,56.47c3.36,34.28,3.52,36.84,2.96,48.7
			c-0.4,6.57-2.56,21.79-6.33,38.04C753.24,259.91,749.47,275.28,742.59,282.25L742.59,282.25z"/>
	</g>
	<g>
		<path class="st51" d="M650.32,210.73c0,0-1.36,0.96,1.36,2.8c-0.4,0.56-1.36,2.56-2.56,3.92c-1.36,1.6-2.8,2.56-3.36,3.92
			c-1.2,2.8-2.16,4.73-2.16,5.93c0,1.2-0.4,8.89-3.76,13.86c-1.2,1.76-2.56,4.73-3.52,6.73c-2,3.52-3.76,6.33-4.16,7.93
			c-0.8,2.8-1.36,10.49-1.36,10.49s1.76-2.16,2.4-2.96c-0.96,2-2,4.16-3.52,5.77c0.96-0.8,3.76-2.8,8.49-6.97
			c6.57-5.53,16.82-14.82,29.31-22.19c-3.76,1.36-6.97,1.36-9.53,1.76c2-2,20.02-23.15,29.47-25.15c0.96-1.2,0.8-2.56,0.8-2.56
			l-8.09-0.8l-16.42,3.52l-2.4-12.65L650.32,210.73L650.32,210.73z"/>
	</g>
	<g>
		<path class="st52" d="M676.43,282.81c0,0-2.16,2.16-4.16,7.53c-0.56-0.56-2.4-2.56-3.92-5.37c-2.96-4.97-7.53-11.29-18.18-7.69
			c-0.16-3.36-0.4-5.13,0-7.53c1.76-0.4,7.13-4.73,12.49-11.05c3.76-4.32,7.29-9.29,9.69-15.62c1.6-1.2,4.33-3.2,7.93-5.53
			c5.13-3.52,11.29-8.33,12.25-13.7c-2.4,0.96-7.53,3.36-15.22,2.96c2.96-1.36,7.53-2.8,6.97-8.73c1.2-0.8,2.16-1.36,2.16-1.36
			s-0.96-0.4-2.8-0.4c-0.16-0.56-0.4-1.36-1.76-0.96c-1.36,0.4-1.6,0.4-1.76,0.96c-0.56,0.16-2.4,0-3.76,0.96
			c-1.36,0.96-5.13,4.16-6.57,4.73c0.56-0.96,1.36-2.4,1.36-2.4s-3.92,0.4-6.73,1.6c-5.13,1.76-11.05,4.97-17.06,8.09
			c0.56-0.96,0.8-1.6,1.2-1.76c0.4-0.16,1.36-0.4,1.36-0.56s-0.4-1.6-0.16-2.16c0.16-0.56,3.52-7.13,6.33-10.89
			c2.8-3.76,3.36-9.13,3.36-9.13l12.25-6.17l34.44-7.93l22.35,1.36l-2.8,15.46l-13.22,26.99l-11.29,24.59l-12.89,15.06
			L676.43,282.81L676.43,282.81z"/>
	</g>
	<g>
		<path class="st53" d="M442.24,340.24c0,0-1.76,7.29-5.77,10.89c-3.92,3.52-10.89,6.57-11.69,12.49c-0.96,5.93,6.97,8.89,6.97,8.89
			s-4.32,7.13-4.32,12.49c0,5.53-0.16,6.57,0.4,11.85c-0.96,0.56-1.6,1.6-1.6,1.6s0.4,5.13,4.33,8.33c3.92,3.2,7.29,5.13,9.29,4.33
			c0.4,0.8,0.8,2,0.8,2s2.96-7.53,4.97-14.1c2-6.73,3.76-5.77,4.57-14.82c0.8-9.13,9.53-24.59,9.53-24.59l5.93-13.3l-9.69-7.53
			L442.24,340.24L442.24,340.24z"/>
	</g>
	<g>
		<path class="st54" d="M460.26,353.29c0,0-2.96,2.96-5.53,6.57c-2.56,3.52-4.57,6.73-8.33,8.09c-3.76,1.36-6.17,1.36-5.93,5.13
			c0.24,3.76,3.76,5.37,5.77,7.29c2.16,2,3.92,5.37,2.96,9.13c1.2-0.56,3.36-1.2,5.37-5.53c2-4.33,16.02-30.68,16.02-30.68H460.26
			L460.26,353.29z"/>
	</g>
	<g>
		<path class="st55" d="M515.44,292.5c0,0,1.2-3.2,0-5.53c-1.2-2.4-8.49-3.2-12.09-5.93c-3.76-2.8-8.33-4.73-12.09-3.52
			c0.56-1.36,2.8-4.33,0.96-4.97c-1.76-0.56-8.33,2.4-10.09,3.76c-1.76,1.36-5.77,2.96-6.57,3.92c-0.8,0.96-2.16,2.8-2.96,2
			c-0.8-0.56-1.2-2-2.56-1.2c-1.36,0.8-7.93,6.17-9.13,9.29c-1.2,3.12-3.92,10.09-12.09,18.02c-8.09,7.93-11.69,13.06-9.29,16.02
			c2.4,2.96,3.52,0.8,3.92,3.36c0.16,1.2,0.4,4.33-0.4,7.53c-0.96,4.16-2.56,8.09-0.4,8.89c5.53,1.76,10.89-1.6,12.09-0.56
			c2.4,2.16-1.36,9.93,4.33,11.45c5.77,1.6,11.45-1.36,11.45-1.36l20.98-11.29l20.18-10.65l10.33-20.42l-5.53-17.06L515.44,292.5
			L515.44,292.5z"/>
	</g>
	<g>
		<path class="st56" d="M495.66,341.28c0,0-3.52-5.37,0.8-10.09c4.33-4.73,10.49-6.73,12.89-9.69c-0.8-0.96-1.76-1.2-1.76-1.2
			s2.16-4.32,6.97-6.57c-1.2-1.2-2.8-2.16-4.57-2.16c-3.92,0-6.33,2.4-9.93,2.4c-3.52,0-3.92-1.76-3.92-1.76s5.93-0.56,5.37-3.2
			c-0.56-2.8-1.6-2.8-1.6-2.8s11.45-4.73,13.46-7.29c2-2.56,1.76-5.53,2.16-6.73c1.36,0,9.29-4.16,12.49-2.4
			c3.2,1.76,0.96,6.57,0.96,6.57s9.69-7.29,14.66-14.42c4.33,0.4,6.33-2.96,9.53-2.96c3.92,0,10.09,5.37,11.29,16.82
			c0.8,6.57,2,10.33,0.8,21.95c-0.56,6.57-0.4,20.58,1.6,27.55c1.36,5.53,4.57,4.97,4.57,4.97s-0.56,2.4-2.8,4.33
			c-2.16,2-2.4,7.29-2.16,9.29c0.4,2,1.2,4.32,1.2,4.32s-2.56,2.96-3.2,4.97c-0.56,2-3.2,3.36-5.13,3.36c-2,0-0.96-0.16-3.52,0
			c-2.56,0.16-3.36,0.56-4.97,0c-1.6-0.56-2.8-1.2-2.16-6.33c0.56-5.13-19.78-17.06-19.78-17.06L495.66,341.28L495.66,341.28z"/>
	</g>
	<g>
		<path class="st57" d="M457.46,391.9c0,0,7.29,9.69,37.24,9.69c14.26,0,19.22-1.36,22.19-2.16c3.2-0.8,15.22-5.53,27.31-19.78
			c10.89-12.89,8.49-18.18,8.49-18.18l-6.33-0.96l-20.58,2.8l-60.95,25.95L457.46,391.9L457.46,391.9z"/>
	</g>
	<g>
		<path class="st58" d="M479.8,394.3c0,0-25.95,5.77-25.95-10.65c0-16.02,16.02-32.84,20.02-35.8c4.16-2.96,14.1-6.33,14.1-6.33
			h23.95l4.57,12.09l-2,26.11L479.8,394.3L479.8,394.3z"/>
	</g>
	<g>
		<path class="st59" d="M503.75,346.41c0,0-4.97-4.57-16.26,1.6c-11.29,6.17-20.42,18.98-20.98,30.68
			c-0.56,10.33,8.49,18.02,22.59,18.42c10.49,0.4,16.82-0.8,20.02-1.6c-0.8-0.96-4.97-6.17-4.97-6.17L503.75,346.41L503.75,346.41z"
			/>
	</g>
	<g>
		<path class="st60" d="M498.86,348.97c0,0-1.2-0.96-4.73,0.96c-2.96,1.6-7.29,5.77-10.65,8.73c-2.16,1.76-3.52,2.56-4.73,3.92
			c-4.97,5.93-9.13,15.62-6.73,20.42c2.4,4.73,10.33,10.33,30.52,6.57L498.86,348.97L498.86,348.97z"/>
	</g>
	<g>
		<path class="st58" d="M492.3,358.9c0,0-3.2,4.97-3.2,12.89c0,8.09,4.57,20.98,21.38,21.95c12.89,0.8,21.54-18.58,30.92-26.11
			c7.13-5.77,11.45-5.93,11.45-5.93s-7.29-7.93-26.75-18.18c-19.22-10.33-40.77-11.69-52.46,4.16c5.53-0.4,23.39-4.97,23.39-4.97
			l8.73,2.8L492.3,358.9z"/>
	</g>
	<g>
		<path class="st61" d="M517.45,369.39c-0.56-1.2-0.96-2.8,1.36-3.2c2.4-0.4,3.36-0.16,4.16,1.6c0.8,1.76,1.6,3.2,0.4,3.92
			C522.17,372.36,519.05,371.72,517.45,369.39z M513.68,358.1c0,0-0.8,0.56-0.4-0.56c0.16-1.36,1.2-3.76,3.76-3.2
			c2.56,0.56,2,3.36,1.6,4.16c-0.4,0.8-2.56,2.16-4.16,1.6C512.88,359.54,513.68,358.1,513.68,358.1z"/>
	</g>
	<g>
		<path class="st62" d="M296.87,363.23c0,0,6.33,4.73,13.7,4.57c7.29-0.16,16.66-7.69,20.98-12.49c2.56-2.8,4.73-5.77,7.13-8.09
			c2-2,3.36-2.96,4.33-4.32c1.36-1.6,2.8-4.57,3.52-5.53c-1.76,1.36-4.33,3.76-6.97,5.37c-2.56,1.6-8.09,4.57-10.33,5.37
			c-2.16,0.8-24.59,12.65-24.59,12.65L296.87,363.23L296.87,363.23z"/>
	</g>
	<g>
		<path class="st63" d="M306.56,304.04c0,0,3.52-2.4,10.33-3.92c6.57-1.6,19.78-2.8,19.78-2.8l10.89,4.73l4.32,16.42l-7.93,17.06
			l-10.09,6.33l-11.45-18.42L306.56,304.04L306.56,304.04z"/>
	</g>
	<g>
		<path class="st64" d="M292.31,318.69l-3.76,2.8c0,0,0.96-1.76,1.76-7.13c0.8-5.37,4.97-18.42,11.05-25.95
			c6.09-7.53,5.93-7.13,5.93-7.13s-1.76-0.4-3.2,0.8c0.8-1.76,5.93-8.09,11.05-11.29c5.13-3.2,7.13-4.16,12.49-1.6
			c5.37,2.56,6.73,3.92,10.65,3.76c3.92-0.16,7.29-4.33,7.29-4.33s0.8,2.56-2.16,8.49c-2.96,5.93-14.66,18.02-14.66,18.02
			l-24.35,16.66L292.31,318.69L292.31,318.69z"/>
	</g>
	<g>
		<path class="st65" d="M310.33,302.04c0,0,17.62,2.4,22.99-2.56c0.16,0.56,0.8,0.56,0.8,0.96c0,0.4-0.4,0.8-0.4,0.8
			s0.96-0.16,1.76-0.16c0.8,0.16,1.36,0.4,2.16,0.4c0.8,0,1.76-0.16,1.76-0.16s-0.16,1.36-1.2,2c0.8,0,1.6,0.16,1.6,0.8
			c0,0.64,0.16,2.56-0.8,2.96c-1.2,0.4-2.4-0.16-2.4-0.16s0,2.16,1.2,4.33c1.6,2.96,4.97,6.33,9.53,5.37c0,0,2.4,5.77-7.69,18.58
			c-1.36,1.76-2.8,4.16-4.57,6.17c-1.36,3.2-1.6,4.73-1.6,4.73s17.06-6.57,21.95-21.54c4.97-15.06,5.93-29.87,4.97-43.73
			c-0.16-3.92-0.8-6.73-1.76-8.73c-2.4-4.97-9.13-4.16-11.85-1.36c-3.92,3.92-10.49,13.7-19.62,20.42
			C317.86,297.87,317.46,299.07,310.33,302.04L310.33,302.04z"/>
	</g>
	<g>
		<path class="st57" d="M289.18,323.66c0,0-3.36,2-5.13,9.53c-1.76,7.69,1.6,17.06,3.52,20.02c2,2.96,6.33,11.05,15.46,11.45
			c2,0,4.32-0.4,6.57-1.36c3.2-1.36,6.33-3.52,8.89-5.53c3.92-2.96,7.13-5.53,6.73-5.77c-0.96-0.4-24.19-19.62-24.19-19.62
			l-8.73-9.77L289.18,323.66z"/>
	</g>
	<g>
		<path class="st66" d="M311.13,355.54c0,0,4.73-0.4,7.53-2.16c2.8-1.76-16.42-20.82-16.42-20.82l1.36,20.58L311.13,355.54z"/>
	</g>
	<g>
		<path class="st67" d="M290.7,322.22c0,0-2.4,4.57-2.4,5.77c-0.4,3.92,0.8,16.26,1.76,20.18c0.96,4.16,6.17,10.49,12.89,10.49
			c4.16,0,9.93-2.56,9.93-3.2c0-0.8-5.93-1.6-7.53-4.57c-0.96-1.6-1.36-5.53-1.6-9.53c-0.16-2.56-0.16-5.37,0.8-6.33
			c2.16-2.4,2.56-9.29,2.56-9.29l7.69-14.26h-10.09l-12.09,7.53L290.7,322.22L290.7,322.22z"/>
	</g>
	<g>
		<path class="st58" d="M287.74,326.62c0,0,7.93-10.49,15.06-12.89c7.13-2.4,10.33-0.96,10.33-0.96l-4.16,10.65l-5.93,6.57l0.4,3.36
			c0,0-0.96,8.89,4.97,15.06c5.93,6.17,10.33,5.93,12.89,5.93c2.56,0,9.93-2.16,13.7-11.05c3.36-8.33,6.17-18.98-0.56-29.71
			c-6.57-10.65-18.18-11.05-20.42-11.05C311.77,302.6,294.15,303.4,287.74,326.62z"/>
	</g>
	<g>
		<path class="st68" d="M491.1,362.26c-2.96-1.36-0.16-9.69,2.8-12.25c2.96-2.56,6.73-5.53,13.3-5.93c2.4-0.16,4.73,1.36,4.32,2.96
			c-0.56,2.96-4.73,7.13-8.49,10.09C497.82,361.22,494.46,363.79,491.1,362.26L491.1,362.26z"/>
	</g>
	<g>
		<path class="st69" d="M330.91,316.85c2.16-0.16,4.97,1.6,5.53,3.92c0.56,2.56-1.36,7.69-5.53,7.69c-3.36,0-5.13-4.16-5.13-5.37
			c0-1.2,0.56-2.4,0.8-2.8C326.75,320.06,327.15,317.25,330.91,316.85z"/>
	</g>
	<g>
		<path class="st70" d="M299.67,318.69c0,0-5.53,2.56-8.09,7.93c-2.56,5.37-2,10.65-1.6,12.65c0.4,2,2.4,6.97,3.76,8.73
			c1.36,1.76,3.2,2.96,4.57,2.8c1.36-0.16,4.16-3.76,4.16-5.93c0-2.16,0.16-11.29,2.8-16.26
			C307.6,323.66,299.67,318.69,299.67,318.69L299.67,318.69z"/>
	</g>
	<g>
		<path class="st71" d="M300.48,318.29c-0.96,0.56-2.56,1.36-2.16,2.4c0.4,0.96,3.76,1.6,4.97,3.92c1.36,2.4,1.36,4.97,0.96,6.17
			c0.4-0.16,1.6-0.8,2.8-2c1.76-2,3.92-4.73,5.77-4.73c1.2,0,2.4,0.56,3.52,0.56c1.76,0,3.52-0.56,3.76-2.4
			c0.4-2.4-3.36-4.57-5.53-4.16c0.4-1.6,0.96-3.92-0.8-5.53c-1.76-1.6-7.29,1.2-8.49,2C304,315.33,300.48,318.29,300.48,318.29
			L300.48,318.29z"/>
	</g>
	<g>
		<path class="st72" d="M427.74,486.57l11.85-3.52l3.36,2.4c0,0,2.4,5.13,6.17,5.77c-1.2,2.56-4.32,4.73-4.16,6.57
			c0.16,1.84,1.76,3.2,1.76,3.2s-10.65,17.62,10.33,35.4c-4.97,2-11.29,4.73-14.66,6.33c2.4,0.56,7.53,1.6,9.69,3.52
			c2.16,2,2.16,2.56,4.16,3.76c2,1.2,3.2,2.8,2.8,3.52c-1.36-0.8-5.93-3.2-6.73-0.96c-0.8,2.16-19.78,1.36-19.78,1.36l-32.04,6.17
			c0,0,1.2-3.2-2.16-6.17c-3.92-3.52-8.73,0.16-13.86-3.76c-6.73-5.13-6.97-11.05-9.13-13.3c2.16-1.36,6.57-3.36,17.06-4.73
			c-0.4-0.8-1.76-3.2-0.96-5.37c0.96-2.8,4.97-4.57,3.76-7.93c1.76-0.4,2.56-0.4,6.97-5.93c4.16-5.53,6.73-6.73,9.93-7.13
			c3.2-0.4,5.13,0,11.05-5.53c4.16-3.92,2.8-7.29,2.8-7.29S428.7,492.09,427.74,486.57z"/>
	</g>
	<g>
		<path class="st73" d="M392.74,488.33c0.16-0.8,0.8-1.2,5.13-0.8c4.32,0.4,31.72-2.56,39.17-2.96c7.53-0.56,34.04-0.16,46.93,2.56
			c12.89,2.72,25.95,5.93,32.28,7.53c6.33,1.76,8.33,2.4,8.09,3.2c-0.16,0.8-1.6,1.6-2.4,1.36c-0.8-0.16-21.79-6.57-28.27-7.93
			c-6.49-1.36-28.91-4.97-41.17-4.73c-11.45,0.16-16.02-0.16-25.71,0.96c-9.69,1.2-25.71,2.8-30.52,2.16
			C391.54,489.13,392.5,489.13,392.74,488.33L392.74,488.33z"/>
	</g>
	<g>
		<path class="st74" d="M457.22,551.12c0,0,16.42,8.89,22.35,19.78C483.89,579,477,583,477,583s9.29,0,8.09,5.13
			c-0.56,3.2-16.02,11.85-26.35,16.42c-10.49,4.57-10.09,4.33-15.22,5.13c-4.97,0.8-18.58-1.6-21.38,2.4
			c-2.8,3.92-1.6,8.09-0.8,8.73c0.8,0.56,7.29,1.36,7.29,1.36s-1.36,3.76-14.82,4.16c-13.46,0.4-16.82,1.36-17.62,2.8
			c-0.8,1.36,2.56,0.56,8.73,1.6c6.17,0.96,14.82,1.6,14.82,1.6s-2.8,2.4-10.09,4.33c-8.33,2.16-21.38,4.16-25.31,6.57
			c2,1.36,4.97,3.36,6.33,3.52c-3.36,0.8-8.09,2.56-8.89,3.2c1.2,0.8,2.8,1.76,2.8,1.76s-6.73,8.09-10.65,10.09
			c-3.92,2-26.51,12.49-34.28,10.49c-19.38-5.13-21.79-26.35-26.51-27.95c-7.13-2.4-10.49,2.4-16.82-0.96c2.8-2,4.33-3.2,7.29-4.57
			c-3.2-1.6-19.78-12.09-19.78-12.09s-2-4.57-5.77-11.05c-3.2-5.53-7.93-12.89-11.45-19.38c-7.69-14.26-8.09-20.82-15.06-28.91
			c1.2-1.6,5.37-1.36,5.37-1.36l58.39,19.22l103.56,2.96l26.91-38.44L457.22,551.12L457.22,551.12z"/>
	</g>
	<g>
		<path class="st75" d="M303.84,609.75c0,0,0.8,0.96,2.16,1.76c2,1.36,4.97,2.96,6.97,5.37c0.8-1.2,2.8-3.36,6.33,0
			c3.52,3.36,7.93,0.96,10.65,1.76c2.8,0.96,2.96,1.36,2.96,1.36s1.6-1.36,5.13-2.8c2.16-0.8,4.73-1.36,7.53-2.16
			c2.56-0.56,5.37-1.36,7.29-1.36c1.76,1.2,8.09,7.93,33.48-2c23.95-9.29,29.47-10.33,33.48-8.89c0.4-0.96,0.8-2.8,6.97-2.56
			c0-2.56-5.13-11.29-5.13-11.29l-28.27-9.69h-15.46l-46.37,8.49l-25.71,14.66L303.84,609.75L303.84,609.75z"/>
	</g>
	<g>
		<path class="st76" d="M288.38,593.49c0,0,0.56,4.33,6.97,8.89c6.33,4.57,8.33,7.29,8.33,7.29s1.2-1.6,2.16-3.2
			c0.96-1.76,1.76-3.76,3.36-4.33c3.2-1.36,10.49,1.2,12.09,0.8c1.36-0.4,0.96-3.2,2.4-3.2c3.36-0.16,5.53,2.16,6.73,2.16
			c1.2,0,4.16-0.16,4.57-0.8c0.4-0.64,0.56-7.29,5.13-10.49c4.97-3.52,11.05-2,12.65-1.2c0,1.2,0.16,4.16,3.36,4.33
			c3.2,0.16,3.52-0.4,6.33,0.56c2.8,0.96,6.17-0.16,7.69,4.57c1.36-0.4,4.57-0.8,3.76-5.37c1.6-1.2,2.96-2,6.33-6.73
			c0.8-1.2,2.16-2.56,3.2-4.33c2.8,0,6.17-0.56,10.65,3.36c-1.36,0.96-2.16,1.6-2.56,2.56c0.4,0.4,2,2,3.2,3.76
			c1.2,1.6,2,3.52,3.52,3.92c3.36,0.96,8.89-0.4,15.06,0c5.93,0.4,10.89,2.56,13.06,3.92c0.8-0.4,0.8-0.56,2.8-0.16
			c2,0.4,3.52,0.56,1.36-2c1.2,0.56,2.56,1.76,3.76,0.56c1.2-1.2,2.16-2.96,5.53-3.36c3.36-0.4,4.57,0.16,5.93-3.36
			c1.76-4.32-4.33-4.32-4.33-4.32s2.8-2.56,5.93-5.93c3.76-3.52,8.09-8.09,9.13-13.7c1.76-10.33-8.33-11.69-8.33-11.69l-48.94,15.06
			l-59.83-2.96L288.38,593.49L288.38,593.49z"/>
	</g>
	<g>
		<path class="st77" d="M244.41,452.13c0,0-1.6,2-2.56,6.73c-0.96,4.73-0.56,4.16-1.36,7.53c-0.8,3.36-10.65,36.84-6.97,48.14
			c3.68,11.29,10.09,15.46,14.1,24.59c0.8,2,1.6,3.2,2,4.97c1.36,5.93,0.16,10.49,1.76,16.42c0.56,2,2,4.33,4.16,6.73
			c4.73,4.97,12.49,9.69,15.86,13.06c4.73,4.97,11.45,15.06,20.02,16.02c4.57,0.56,11.05-1.36,16.42-4.57
			c4.73-2.96,7.69-7.13,12.65-9.53c3.52-1.76,7.29-2.4,10.65-3.2c6.97-1.36,13.3-1.6,17.06-0.8c5.77,1.2,19.38,5.37,26.91,5.37
			c2.96,0,9.93-0.4,17.46-2.4c11.45-3.36,25.31-9.13,34.44-11.69c5.37-1.6,9.69-2,14.1-2.96c7.53-1.76,13.86-4.16,17.46-8.73
			c-2.4-2.8-5.37-7.13-21.38-6.97c-18.18,0.4-39.17,10.49-49.5,12.09c-10.33,1.6-14.82,2.96-26.35-1.2
			c-11.29-4.16-11.69-6.97-11.69-6.97s-11.85-8.33-16.82-29.47c-4.97-21.22,0-36.6,12.89-51.26c3.36-3.76,2.56-7.13,2.56-7.13
			s8.49-11.45,6.17-22.19c-2.56-10.65-18.98-8.49-18.98-8.49L244.41,452.13L244.41,452.13z"/>
	</g>
	<g>
		<path class="st78" d="M258.11,487.77c0,0-1.2,2.16-0.96,4.32c0.16,2.16,0.8,4.97,7.29,11.29c5.53,5.53,4.33,11.69,4.33,11.69
			s2.8,0.56,10.33-2.96c5.93-2.8,7.93,2.16,7.93,2.16s2.4-1.36,5.53-1.76c3.2-0.4,4.97-1.6,4.97-1.6s6.97,7.13,13.05,10.49
			c5.53,2.96,8.73,4.97,11.45,2.96c2.56-1.76,2.56-5.37,2.4-6.97c0,0-0.8-2-2.4-4.16c-1.76-2.56-4.57-5.53-4.73-7.93
			c-0.4-5.53,4.16-12.09,3.2-13.7c-0.96-1.6-4.57-2-13.46,1.2C297.83,495.86,258.11,487.77,258.11,487.77L258.11,487.77z"/>
	</g>
	<g>
		<path class="st79" d="M279.09,523.57c0,0-4.57-4.33-2.96-25.31c2.4-0.16,5.77,0.56,5.77,0.56S284.38,515.08,279.09,523.57
			L279.09,523.57z"/>
	</g>
	<g>
		<path class="st58" d="M246.57,436.11c0,0,0.8-0.56,1.76-1.6c-1.6,2.96-8.89,14.82-2.96,33.48c5.93,18.58,20.82,32.44,39.17,33.08
			c18.34,0.64,27.95-8.33,39.01-21.79c4.32-5.37,9.29-12.09,13.7-16.66c6.57-7.13,11.69-9.13,11.69-16.02
			c0-14.1-14.42-20.42-35.64-26.75c-21.22-6.33-40.37-5.53-50.3-1.2C253.3,423.38,249.14,428.34,246.57,436.11L246.57,436.11z"/>
	</g>
	<g>
		<path class="st80" d="M335.32,512.52c0,0-2.8-1.76-5.53-0.56c-2.56,1.2-2.4,5.93-2.4,5.93s1.76,0.8,3.52-0.4
			C332.67,516.28,334.92,514.28,335.32,512.52z"/>
	</g>
	<g>
		<path class="st81" d="M340.6,518.85c-0.16-1.6-1.6-1.6-1.6-2.4c0.16-0.8,0.96-1.36,1.76-1.36c0.8,0,1.6,0.96,2.56,1.6
			c0.96,0.56,2.4,1.6,2.56,2.8c0.16,1.2-1.6,4.57-3.52,4.57C340.44,523.97,341,520.45,340.6,518.85L340.6,518.85z M356.06,516.68
			c0,0-3.2,0.96-2.96,0c0.16-0.96,0.96-1.2,2-1.2c0.4-0.4,1.2-0.96,2-0.96s1.2,0.4,1.2,0.4s2.16-0.96,2.8-0.4
			c0.56,0.56,0.16,0.56,0.56,1.2c0.4,0.56,0.96,1.76,0.96,2.4c0,0.64-2.4,2-4.33,1.76C356.06,519.41,356.46,517.08,356.06,516.68
			L356.06,516.68z M360.81,503.22c0,0-3.2,0.96-2.96,0c0.16-0.96,0.96-1.2,2-1.2c0.4-0.4,1.2-0.96,2-0.96s1.2,0.4,1.2,0.4
			s2.16-0.96,2.8-0.4c0.56,0.56,0.16,0.56,0.56,1.2c0.4,0.56,0.96,1.76,0.96,2.4c0,0.64-2.4,2-4.32,1.76
			C360.81,505.94,361.21,503.62,360.81,503.22L360.81,503.22z M374.72,513.08c0,0,0.96,0.56,0.16,1.2c-0.56,0.56-3.36,1.6-5.77,1.76
			c-2.4,0-4.57,0.4-4.57-0.4c0-0.8,2-2.4,3.2-2.8c0.4-0.56,1.2-0.96,2-0.96c0.96,0,4.73-0.4,5.77-0.56c0.96-0.16,1.76,0.4,1.2,1.2
			C376.48,513.08,374.72,513.08,374.72,513.08z M380.25,488.33c0,0-1.2,2.56-2.56,2.56c-1.36-0.16-1.36-0.56-1.36-0.96
			c0-0.56,1.36-2,1.2-2.4c-0.4,0-1.36,0-1.2-0.96c0-0.8,1.36-1.76,2.56-1.6c0.4-0.4,1.76-1.2,3.2-1.2c1.36,0,2.56,0.4,2.56,1.2
			c0,0.8-1.6,2.56-2.16,2.96C381.85,488.57,381.05,488.97,380.25,488.33z M361.99,535.67c0,0-1.6,0.16-1.6,0.96
			c0,0.4,0.4,0.4,0.96,0.16c0.4,0,0.96-0.16,0.96-0.16c0.16,0.16,0.16,0.96,1.36,0.96c0.56,0,1.76-0.4,2.8-0.96
			c0.96-0.4,1.76-0.8,1.76-1.6c-0.4-1.36-1.2-2-2.4-2c-1.2,0-1.76,0.4-1.76,0.4s-0.4-0.8-1.76,0s-1.2,0.8-0.8,1.2
			C362.23,535.26,361.99,535.67,361.99,535.67L361.99,535.67z M352.94,543.99c0-0.4,2-1.2,2.56-0.96c0.56,0.16,2.16,3.2,2.16,3.52
			c0,0.4-2,1.36-2.8,1.36s-2.16-1.36-2.16-1.6c0-0.16,0.96-0.4,0.96-0.56C353.9,545.36,352.94,544.4,352.94,543.99L352.94,543.99z
			 M346.61,532.3c0.4-0.16,0.4-0.56,0.96-0.96s1.2-0.16,1.2-0.16s0.4-0.8,1.36-0.96c0.96-0.16,1.76,0,1.6,0.4c0,1.2,0.8,2,0.8,2.96
			c0,0.96-0.56,2.16-2.56,2.96c-2,0.56-4.73,0.56-5.13,0.4c-0.4-0.16-0.8-1.76-0.4-2.56C344.77,533.5,345.97,532.7,346.61,532.3
			L346.61,532.3z M360.04,492.62c0,0,0.23,2.82-0.96,3.5c-1.26,0.54-1.46,0.19-1.66-0.16c-0.28-0.49,0.19-2.41-0.15-2.68
			c-0.35,0.2-1.18,0.67-1.52-0.24c-0.4-0.7,0.31-2.21,1.43-2.66c0.15-0.55,0.94-1.92,2.19-2.63c1.18-0.67,2.42-0.92,2.82-0.23
			c0.4,0.7-0.12,3.02-0.41,3.65C361.55,492.03,361.06,492.78,360.04,492.62z M348.33,504.87c0,0,1.98,2.02,1.51,3.3
			c-0.62,1.22-1,1.08-1.38,0.94c-0.53-0.2-1.4-1.97-1.83-1.96c-0.14,0.38-0.47,1.28-1.32,0.79c-0.75-0.28-1.18-1.89-0.61-2.96
			c-0.24-0.51-0.51-2.07-0.01-3.42c0.47-1.28,1.27-2.26,2.02-1.98c0.75,0.28,1.84,2.39,2.02,3.06
			C349.11,503.45,349.21,504.34,348.33,504.87z"/>
	</g>
	<g>
		<path class="st77" d="M349.17,532.86c0,0-1.36,0.8-1.36,1.2c-0.16,0.4-0.16,0.96-0.16,1.2c0,0.24,1.76-0.16,2-0.4
			C349.73,534.7,349.17,533.26,349.17,532.86L349.17,532.86z"/>
	</g>
	<g>
		<path class="st80" d="M336.28,529.9c0,0-2.56,2-3.2,2.96c-0.8,0.96-4.73,5.93-5.93,6.97c0.4-0.8,1.36-2,1.36-2
			s-2.4,1.36-3.36,4.33c-0.96,2.96,5.37,4.57,9.53,5.77s5.77,1.6,5.77,1.6s-2.4-3.52-3.92-7.29c-1.6-3.76-2.4-4.16-1.36-5.93
			c0.8-1.76,2-2.96,2-4.33C336.68,530.7,336.28,529.9,336.28,529.9L336.28,529.9z"/>
	</g>
	<g>
		<path class="st58" d="M244.97,536.23c0,0,0.56,0.16,1.76,0c1.2-0.16,13.7-4.73,26.75-3.92c5.77,0.4,16.02,1.2,28.91,4.73
			c16.42,4.33,36.84,12.89,50.06,17.78c3.52,1.36,6.97,3.76,9.53,4.73c10.09,3.92,10.49,3.92,16.42,4.97
			c6.97,0.96,14.1-1.36,21.54-2.96c9.13-2,24.75-2.96,38.44-4.97c7.13-0.96,13.06-2.96,13.06-2.96s-10.89,10.89-37,14.82
			c-13.06,2-23.79,1.36-31.88,0.4c-8.33-0.8-13.86-2-18.02-3.2c-4.73-1.36-14.42-4.97-26.35-7.93c-8.33-2.16-17.62-3.76-28.27-5.77
			C283.66,547.12,255.14,541.59,244.97,536.23z"/>
	</g>
	<g>
		<path class="st82" d="M228.39,510.76c-2.4,2.8-4.97,5.37-7.53,7.69l-7.93,7.53c-2.56,2.56-4.97,5.13-7.69,7.69
			c-2.8,2.4-5.37,4.73-8.33,6.97l7.69-7.53c2.56-2.56,5.37-4.73,8.09-7.29l7.69-7.53C223.03,515.64,225.59,513.08,228.39,510.76
			L228.39,510.76z M229.59,524.61c0,0-2.96,8.73-8.49,19.62c-6.73,13.46-16.82,30.28-21.22,38.84"/>
	</g>
	<g>
		<path class="st83" d="M258.11,590.29c0,0-7.93,10.49-7.13,23.79C253.14,607.11,255.86,596.46,258.11,590.29z M265.64,600.78
			c0,0-2.8,28.51-5.13,42.53C263.79,627.13,264.43,628.49,265.64,600.78z M318.1,644.99c0,0-11.85,34.84-12.09,44.53
			C308.57,679.59,313.53,659.25,318.1,644.99z"/>
	</g>
	<g>
		<path class="st84" d="M345.81,588.13c0,0,19.22,31.72,33.64,58.79C375.52,633.3,366.55,608.31,345.81,588.13z"/>
	</g>
	<g>
		<path class="st85" d="M549.32,681.59c3.2-2,9.53-12.89,15.06-15.62c5.53-2.8,9.69-3.36,14.66-8.89
			c4.97-5.77,6.33-9.29,17.22-13.86c15.22-6.57,4.73-15.06,4.73-15.06s2.56-2.56,5.37-4.57c3.92-2.96,8.49-6.57,8.09-12.89
			c-0.56-10.65-2.56-26.11-11.29-35.08c8.49-1.76,24.75-2.96,34.84-5.53c11.69-2.96,17.06-7.13,17.06-7.13s-6.73-11.45,4.16-22.99
			c10.89-11.45,19.78-18.42,26.35-31.32c-7.53-0.96-18.98-4.97-48.3,6.17c2.16,0.96,4.57,2.56,4.57,2.56s-18.02,4.97-24.59,10.49
			c-11.45,9.69-12.89,17.62-25.31,23.55c-12.49,5.93-24.91,4.32-35.24,9.13c-10.33,4.73-11.85,8.89-15.62,10.65
			c0.8,0.96-0.16,2.56,1.36,3.92c-0.96,1.36-6.57,10.49-12.25,10.49c0.56,2.16,5.37,3.76,5.37,3.76s-3.52,2.56-12.49,3.2
			c4.57,4.73,8.89,9.93,20.82,17.46c-0.96,2-4.97,4.97-3.36,8.73c1.76,3.76,6.33,8.89,24.59,13.06c-9.29,0.4-20.18,2.56-34.84,0.56
			c-14.66-1.76-17.06-2.8-26.11-0.56c0.96,0.96,3.52,0.96,5.77,3.52c-2.4,0.16-17.46-1.76-22.59,4.97
			c-5.37,6.97-7.69,18.42-7.29,26.11c-2.8,1.36-5.53,3.76-4.16,8.73c1.36,4.97,8.49,6.57,13.06,9.69c4.57,3.36,4.97,4.57,9.29,3.76
			c4.57-0.96,11.29-5.53,15.22-5.53c3.92,0,6.73,2.96,6.73,2.96s10.65-5.13,11.69-4.16c0.96,0.96,0.16,7.13,1.2,8.09
			C534.11,690.72,546.12,683.6,549.32,681.59L549.32,681.59z"/>
	</g>
</g>
</svg>
