<?xml version="1.0" encoding="utf-8"?>
<!-- Generator: Adobe Illustrator 24.1.2, SVG Export Plug-In . SVG Version: 6.00 Build 0)  -->
<svg version="1.1" xmlns="http://www.w3.org/2000/svg" xmlns:xlink="http://www.w3.org/1999/xlink" x="0px" y="0px"
	 viewBox="0 0 1200 1200" style="enable-background:new 0 0 1200 1200;" xml:space="preserve">
<style type="text/css">
	.st0{fill:#E7C86C;}
</style>
<g id="Layer_4">
</g>
<g id="Layer_3">
</g>
<g id="Layer_5">
	<g>
		
			<ellipse transform="matrix(0.9488 -0.3159 0.3159 0.9488 -84.0507 155.7186)" class="st0" cx="438.37" cy="337.16" rx="102.73" ry="163.11"/>
		
			<ellipse transform="matrix(0.3917 -0.9201 0.9201 0.3917 144.2655 892.5176)" class="st0" cx="747.11" cy="337.16" rx="162.93" ry="102.84"/>
		
			<ellipse transform="matrix(0.665 -0.7469 0.7469 0.665 -347.8425 393.8117)" class="st0" cx="265.03" cy="584.62" rx="89.25" ry="131.5"/>
		
			<ellipse transform="matrix(0.6879 -0.7258 0.7258 0.6879 -103.7888 847.3639)" class="st0" cx="933.33" cy="544.36" rx="133.26" ry="90.88"/>
		<path class="st0" d="M1045.28,868.23c-11.68-81.07-72.54-149.63-143.55-161.69l8.84,2.08c-58.73-4.45-115.26-38.6-151.61-91.58
			c-17.55-25.58-30.99-55.72-53.72-75.24c-18.63-16-41.89-23.32-64.94-27.15c-37.08-6.15-75.75-3.91-110.75,11.42
			c-35,15.33-66.03,44.52-82.17,83.23c-8.91,21.38-13.17,45-22.26,66.28c-25.56,59.83-83.95,91.01-120.7,142.65
			c-27.15,38.15-41.74,87.75-40.28,136.92c0.39,13.01,1.98,26.4,7.81,37.57c5.92,11.35,15.67,19.36,25.62,26.07
			c48.27,32.51,108.43,40.95,162.13,22.77c67.37-22.82,126.93-85.38,196.89-78.04c25.17,2.64,48.8,14.39,72.86,23.27
			c87.53,32.33,185.42,26.34,269.43-16.49c11.76-6,23.55-12.93,32.17-23.88C1047.2,925.97,1049.2,895.42,1045.28,868.23z"/>
	</g>
</g>
</svg>
